<svg width="43" height="42" viewBox="0 0 43 42" fill="none" xmlns="http://www.w3.org/2000/svg">
<path d="M42.1221 19.0402C41.6951 13.239 38.7149 7.36488 32.8459 3.72915H32.8428C31.9066 3.15229 30.8994 2.6484 29.8353 2.23226H29.8323C26.5559 0.828066 22.5999 0.787637 18.8945 1.18306L21.7114 39.9267C35.5116 40.2186 43.1608 28.4564 42.1241 19.0402H42.1221Z" fill="#EE8C28"/>
<path d="M21.5567 39.9308C32.0728 39.2858 40.0346 30.0855 39.3399 19.3814C38.6452 8.67722 29.5571 0.522639 19.041 1.16762C8.52496 1.81259 0.563145 11.0129 1.25782 21.717C1.9525 32.4212 11.0406 40.5758 21.5567 39.9308Z" fill="#F2B33D"/>
<path d="M21.3731 37.076C30.3399 36.526 37.1288 28.681 36.5364 19.5536C35.9441 10.4262 28.1949 3.47281 19.228 4.02277C10.2612 4.57273 3.47238 12.4178 4.06473 21.5452C4.65707 30.6726 12.4063 37.626 21.3731 37.076Z" fill="#C66712"/>
<path d="M22.4853 36.9935C30.8798 36.44 37.1689 28.5944 36.5323 19.4698C35.8957 10.3453 28.5746 3.397 20.1801 3.95048C11.7856 4.50396 5.49652 12.3496 6.13311 21.4742C6.76969 30.5987 14.0908 37.547 22.4853 36.9935Z" fill="#EE8C28"/>
<path d="M17 28C18.1 28 19 27.1 19 26V16C19 14.9 18.1 14 17 14C15.9 14 15 14.9 15 16V26C15 27.1 15.9 28 17 28ZM23 16V26C23 27.1 23.9 28 25 28C26.1 28 27 27.1 27 26V16C27 14.9 26.1 14 25 14C23.9 14 23 14.9 23 16Z" fill="#F2B33D"/>
</svg>
