<svg width="65" height="55" viewBox="0 0 65 55" fill="none" xmlns="http://www.w3.org/2000/svg">
<path d="M64.961 44.1496C64.9787 43.3571 64.8759 42.8442 64.844 42.5364C64.7376 42.2604 64.7801 41.4432 64.4787 41.2522C64.5248 41.1815 64.5886 41.1213 64.429 41.0506C64.4645 40.994 64.5425 41.1319 64.4928 41.0293C64.4219 41.0223 64.4929 40.9303 64.4184 40.9515C64.4503 40.9267 64.429 40.9161 64.4467 40.8737C64.3936 40.8878 64.3971 40.9303 64.3581 40.9444C64.3404 40.9267 64.3297 40.8808 64.3652 40.9161C64.4148 40.7003 64.2481 40.4952 64.2091 40.2794C64.1417 40.3713 64.0815 40.2227 64.124 40.2051C64.1311 40.1131 64.1985 40.2723 64.1985 40.2051C64.2091 40.106 64.0708 40.1378 64.0885 40.0636C64.0495 40.0636 64.0992 40.0388 64.1169 40.0459C64.1169 39.9928 64.0389 39.9787 64.0673 39.968C64.1098 39.9327 64.0389 39.8973 64.0034 39.8831C64.0354 39.8761 64.0531 39.8371 64.0247 39.8584C63.9538 39.9256 63.9751 39.7487 63.9467 39.8407C63.968 39.7912 64.007 39.6921 63.8935 39.7522C63.9183 39.6673 63.8793 39.6567 63.9325 39.5683C63.8474 39.4339 63.7339 39.1508 63.6772 39.0129C63.624 38.9704 63.5566 38.8218 63.5424 38.9244C63.4431 38.8431 63.5956 38.7263 63.4963 38.6945C63.4324 38.56 63.4112 38.4716 63.2303 38.5848C63.5424 38.4539 62.9714 37.8136 62.8225 37.4846C62.5387 36.8337 61.9961 35.8361 61.7159 35.4575C61.6592 35.3868 61.2265 34.2724 60.9038 34.0389C60.9428 33.9965 60.9428 33.901 60.8045 33.8797C60.8293 33.816 60.9322 33.9363 60.8612 33.8443C60.7903 33.8514 60.8471 33.7488 60.7726 33.7842C60.7974 33.7524 60.7761 33.7524 60.7868 33.7028C60.7371 33.7276 60.7513 33.7665 60.7123 33.7877C60.691 33.7771 60.6733 33.7347 60.7123 33.7594C60.7194 33.5436 60.5208 33.3703 60.457 33.1651C60.3754 33.2783 60.3541 33.1121 60.3541 33.0802C60.4179 33.0661 60.4499 33.1616 60.4144 33.0519C60.3825 32.9988 60.3045 33.0271 60.2903 32.9705C60.3825 32.9139 60.2442 32.8998 60.2867 32.8432C60.1945 32.8184 60.2477 32.7689 60.2193 32.776C60.1555 32.8503 60.159 32.6734 60.1378 32.7654C60.1519 32.7123 60.1803 32.6132 60.0775 32.684C60.0917 32.5991 60.0526 32.592 60.0952 32.5C59.9959 32.3798 59.8682 32.1038 59.8008 31.9729C59.7441 31.934 59.6696 31.789 59.6625 31.8916C59.5597 31.8137 59.7086 31.6935 59.6058 31.6651C59.5349 31.5343 59.5136 31.4494 59.3363 31.5661C59.6413 31.4281 59.0596 30.8055 58.9142 30.4765C58.6341 29.822 58.1056 28.8209 57.8325 28.4388C57.8325 28.5131 57.7971 28.3999 57.79 28.3893C57.8113 28.4105 57.868 28.4211 57.8325 28.3822C57.751 28.3928 57.8432 28.223 57.7332 28.2407C57.7332 28.1558 57.6127 27.9082 57.5524 27.9365C57.485 27.6322 57.2226 27.091 57.0275 27.0025C57.0984 26.9884 57.0842 26.8681 56.9495 26.8469C56.9743 26.7832 57.0736 26.907 57.0062 26.815C56.9353 26.8221 56.9956 26.7195 56.9211 26.7549C56.9459 26.723 56.9246 26.723 56.9388 26.6735C56.8892 26.6947 56.8998 26.7372 56.8644 26.7584C56.8431 26.7443 56.8253 26.7018 56.8644 26.7301C56.875 26.5143 56.6835 26.3374 56.6197 26.1322C56.5345 26.2455 56.5168 26.0756 56.5203 26.0473C56.5842 26.0332 56.6126 26.1322 56.5806 26.019C56.5487 25.966 56.4707 25.9943 56.4565 25.9341C56.5487 25.8811 56.4104 25.8634 56.4565 25.8068C56.3537 25.7785 56.4352 25.7148 56.3714 25.7537C56.3182 25.7926 56.3359 25.637 56.3111 25.729C56.3288 25.6759 56.3572 25.5768 56.2508 25.6476C56.2686 25.5627 56.226 25.5556 56.2756 25.4636C56.148 25.3115 55.9033 24.6712 55.8572 24.8481C55.7579 24.7667 55.9068 24.65 55.8075 24.6181C55.7401 24.4872 55.7188 24.3988 55.5415 24.5155C55.8501 24.3811 55.2826 23.7479 55.1514 23.4153C54.8783 22.7396 54.4811 21.9154 54.1477 21.3812C54.1371 21.2503 54.1158 21.4413 54.091 21.2963C54.1832 21.3529 54.091 21.2503 54.0981 21.2432C54.0555 21.1229 53.9704 20.8576 53.8711 20.8364C53.8321 20.5392 53.5271 19.9449 53.3959 19.8918C53.4314 19.8246 53.4385 19.8741 53.4172 19.7822C53.3711 19.7574 53.2505 19.6866 53.3888 19.7255C53.3001 19.6336 53.2895 19.6336 53.3037 19.5522C53.254 19.5734 53.2611 19.6159 53.2257 19.6336C53.2079 19.6265 53.1867 19.5734 53.2292 19.6053C53.2505 19.3895 53.0625 19.2055 53.0093 18.9968C52.9207 19.1065 52.91 18.9366 52.91 18.9083C52.9668 18.8871 52.9774 18.9791 52.988 18.9296C52.988 18.8305 52.8533 18.8765 52.8675 18.7987C52.8285 18.8022 52.8746 18.7739 52.8958 18.7775C52.8958 18.7244 52.8143 18.7138 52.8426 18.7032C52.8852 18.6678 52.8143 18.6324 52.7753 18.6218C52.8072 18.6147 52.8249 18.5723 52.793 18.5935C52.7256 18.6643 52.7398 18.4874 52.7114 18.5793C52.7292 18.5263 52.7646 18.4308 52.6547 18.4944C52.676 18.4095 52.6334 18.3989 52.6866 18.3105C52.3568 17.5923 50.963 15.2999 51.1758 14.0511C51.1439 13.8035 51.4063 12.7776 51.3283 12.4946C51.4347 12.4415 51.2964 12.2575 51.3708 12.3142C51.3992 12.4132 51.385 12.208 51.3496 12.1974C51.3886 12.1974 51.3709 12.1762 51.4063 12.1408C51.3531 12.1337 51.3389 12.1726 51.2999 12.1691C51.2893 12.1479 51.2999 12.0984 51.3177 12.1443C51.4489 11.9639 51.3779 11.7057 51.4205 11.4899C51.2928 11.55 51.3602 11.3908 51.3744 11.3625C51.4382 11.3696 51.4028 11.458 51.4347 11.4191C51.4808 11.3307 51.3425 11.3095 51.385 11.2422C51.346 11.2316 51.4028 11.221 51.417 11.2352C51.4347 11.1856 51.3638 11.1396 51.3957 11.1432C51.4489 11.1255 51.3957 11.0618 51.3602 11.0371C51.3957 11.0406 51.424 11.0088 51.3886 11.0158C51.2999 11.0583 51.3744 10.892 51.3177 10.9734C51.3531 10.9309 51.4205 10.846 51.2928 10.8708C51.3389 10.7965 51.3106 10.7717 51.3815 10.6974C51.307 10.4533 51.1971 9.85548 51.08 9.95099C50.9843 9.94038 51.1368 9.7635 51.0552 9.73166C50.9772 9.62907 50.9346 9.47341 50.7538 9.62553C51.1439 9.00644 48.5053 7.60906 47.8102 8.06188C47.679 8.10434 47.3704 8.08311 47.1222 8.28829C46.8739 8.33075 46.1859 8.62791 46.2036 8.85786C46.1185 8.84017 46.0476 8.80125 46.0263 8.97106C45.9589 8.95337 46.0724 8.84017 45.9837 8.92153C46.0015 8.98875 45.8915 8.95337 45.9376 9.02059C45.8986 8.99583 45.9057 9.02413 45.8525 9.02059C45.8844 9.06658 45.9234 9.04535 45.9483 9.07719C45.9412 9.10196 45.8986 9.12672 45.9199 9.07719C45.6965 9.10903 45.5688 9.34605 45.3773 9.4628C45.5121 9.51232 45.3489 9.576 45.3205 9.58662C45.2815 9.53709 45.3667 9.49817 45.317 9.50171C45.2212 9.53355 45.3064 9.64676 45.2319 9.66444C45.2496 9.69982 45.2035 9.66444 45.2035 9.64675C45.1539 9.66798 45.1681 9.74581 45.1503 9.72458C45.0758 9.70336 45.0581 9.92977 45.0794 9.89085C45.0262 9.89085 44.9198 9.90147 45.0226 9.97576C44.934 9.98991 44.9411 10.0324 44.8382 10.0217C44.7176 10.2234 44.2814 10.6444 44.4233 10.6762C44.4588 10.7257 44.2637 10.7505 44.2637 10.7717C44.2637 10.8354 44.2247 10.8106 44.214 10.8531C44.2424 10.892 44.2424 10.9168 44.214 10.8779C44.246 11.0052 44.3736 11.2599 44.2211 10.9132C42.6217 10.5665 40.3945 10.1067 39.4121 10.1385C39.0149 9.96868 38.1957 10.0147 38.0644 10.0253C38.1744 9.89085 37.7949 10.096 37.8978 9.99345C38.0148 9.96161 37.7701 9.98283 37.7594 10.0182C37.7559 9.97576 37.7311 9.99698 37.6885 9.96161C37.6814 10.0182 37.7346 10.0253 37.7311 10.0677C37.7062 10.0783 37.646 10.0748 37.7027 10.05C37.4757 9.92623 37.1778 10.0041 36.9083 9.95453C36.9828 10.0925 36.77 10.0041 36.7558 10.0005C36.7877 9.94038 36.8976 9.96161 36.7629 9.93684C36.6033 10.0324 36.5714 9.94746 36.4295 9.94746C36.3373 10.043 36.387 9.91916 36.3338 9.96514C36.4153 10.0394 36.1919 9.9793 36.2841 10.0288C36.2451 10.0005 36.1493 9.905 36.16 10.043C36.0784 9.98637 36.0465 10.0217 35.972 9.93331C35.8018 9.95807 35.3975 9.95099 35.2663 9.93331C35.0038 9.94392 35.1634 10.0324 34.8868 9.98637C34.8123 9.86609 34.6917 9.98637 34.5073 10.1809C34.8159 9.93684 34.6314 9.54416 34.6031 9.14794C34.6173 8.49348 34.5641 7.67274 34.4612 7.14209C34.4825 7.0112 34.4541 6.48762 34.3903 5.86146C34.3903 5.79071 34.4222 5.67043 34.3016 5.68811C34.2981 5.64566 34.3796 5.67396 34.3229 5.64566C34.5002 5.67396 34.2023 5.42986 34.3584 5.52184C34.3903 5.52892 34.2839 5.38034 34.3584 5.35911C34.2981 5.39803 34.2023 5.38741 34.2732 5.3768C34.3725 5.20345 34.2662 4.98766 34.291 4.8037C34.1739 4.86384 34.2165 4.73295 34.2342 4.69757C34.2945 4.69757 34.2732 4.7754 34.3016 4.74002C34.3193 4.65865 34.2236 4.64097 34.22 4.59144C34.3264 4.56668 34.2094 4.52069 34.2732 4.48177C34.1952 4.42517 34.2732 4.41102 34.2413 4.40394C34.1527 4.44286 34.2271 4.30135 34.1739 4.36857C34.2165 4.32611 34.2732 4.2589 34.1527 4.28013C34.2023 4.21645 34.1704 4.19522 34.2484 4.13862C34.1988 3.97942 34.22 3.3568 34.1101 3.49123C34.0463 3.3851 34.22 3.37095 34.1598 3.30019C34.181 3.26482 34.1456 3.1976 34.1066 3.16576C34.181 3.13392 34.1278 3.14454 34.0995 3.10916C34.0427 2.55375 34.1243 1.59504 33.8938 0.983026C33.4717 0.40285 32.5284 -0.216241 32.0177 0.0738475C31.8333 0.197666 31.6666 0.480678 31.5708 0.554969C31.5673 0.604496 31.6347 0.707089 31.5779 0.632798C31.5637 0.661099 31.5354 0.6894 31.5531 0.632798C31.4431 0.625722 31.5212 0.85567 31.4609 0.753078C31.4609 0.661099 31.4538 0.809681 31.4041 0.820294C31.4573 0.866283 31.3935 0.845057 31.3545 0.869821C31.4325 0.880434 31.4928 0.944112 31.4361 0.908735C31.2445 0.986564 31.1984 1.23066 31.0743 1.38278C31.2091 1.38986 31.0956 1.48891 31.0672 1.51014C31.014 1.4783 31.0779 1.41816 31.0318 1.43585C30.9537 1.49599 31.0779 1.56674 31.0105 1.60919C31.0353 1.61627 30.8899 1.63749 30.9857 1.69056C30.8651 1.69056 30.9715 1.92051 30.9786 1.87452C30.936 1.90282 30.8473 1.99126 30.9786 1.98418C30.9218 2.04432 30.9502 2.06909 30.8686 2.11861C30.9644 2.88982 30.7055 4.97704 30.787 6.28952C30.7693 6.09141 30.5814 7.6692 30.7729 7.66213C30.7303 7.71519 30.6381 7.70458 30.7161 7.78948C30.7764 7.89915 30.7161 7.81779 30.6842 7.81071C30.7232 7.86024 30.6807 7.91684 30.7339 7.92745C30.6984 7.93807 30.6487 8.02297 30.7339 7.96283C30.7445 8.00528 30.7587 7.93453 30.787 7.95222C30.8012 7.96637 30.7941 8.01589 30.7693 7.97344C30.6523 8.13264 30.7338 8.35905 30.6877 8.53947C30.8119 8.49348 30.7551 8.62083 30.7339 8.64913C30.6736 8.64206 30.7055 8.56777 30.6736 8.59961C30.6452 8.67744 30.7409 8.70574 30.7374 8.7588C30.6275 8.76942 30.7409 8.83309 30.6736 8.86139C30.7445 8.92861 30.6665 8.93215 30.6984 8.94276C30.7906 8.91446 30.6984 9.04889 30.7622 8.98521C30.7161 9.02059 30.6523 9.08073 30.7729 9.07365C30.7161 9.13026 30.7445 9.15502 30.6629 9.20455C30.6877 9.34252 30.6558 9.6043 30.6487 9.73873C30.6345 9.84486 30.8119 9.89439 30.6629 9.98991C30.6133 9.98991 30.67 10.0005 30.6452 10.0041C30.6629 10.0147 30.7338 10.0854 30.6665 10.0324C30.631 10.0076 30.787 10.1774 30.8438 10.2305C30.3083 9.81656 28.8542 10.0783 28.0385 9.96161C27.159 9.96161 26.3539 10.0288 26.056 10.043C25.5666 10.1173 24.6871 10.0394 24.2544 10.2977C24.3183 10.2269 24.1729 10.2977 24.2331 10.2517C24.2296 10.1385 23.9672 10.3932 24.0345 10.2765C24.1303 10.2057 23.9707 10.3154 23.9104 10.2906C23.9104 10.3861 23.882 10.2482 23.8643 10.326C23.7508 10.2305 23.8643 10.3791 23.8785 10.3861C23.8572 10.4003 23.7898 10.4144 23.843 10.3755C23.5806 10.3012 23.2969 10.4498 23.0061 10.464C23.116 10.5807 22.8713 10.5453 22.8571 10.5453C22.8784 10.4781 22.9919 10.471 22.85 10.4816C22.7968 10.4852 22.694 10.6621 22.6904 10.5382C22.5947 10.5524 22.5982 10.5948 22.5379 10.5595C22.4741 10.6338 22.4209 10.5842 22.428 10.609C22.4918 10.6904 22.2755 10.6444 22.3819 10.6868C22.3358 10.6691 22.2116 10.5984 22.2577 10.7328C22.1584 10.6974 22.1372 10.7434 22.0414 10.6762C21.7506 10.793 20.9526 10.8991 21.1335 11.0123C20.8746 11.0335 20.7682 10.9522 20.6902 11.129C20.5732 11.4262 20.6441 11.2352 20.7044 11.0866C19.7965 9.61492 18.3353 7.98759 16.9026 7.81779C16.8742 7.87439 16.821 7.66567 16.672 7.82486C16.7465 7.70458 16.6366 7.76118 16.5621 7.80363C16.5444 7.76472 16.5266 7.78948 16.4805 7.76118C16.4805 7.81778 16.5302 7.81778 16.5337 7.86024C16.5124 7.87439 16.4592 7.88146 16.5053 7.84609C16.2677 7.75411 16.0479 7.90976 15.8138 7.95929C15.9166 8.01943 15.7322 8.09726 15.7358 8.04773C15.64 8.0442 15.8067 7.9699 15.7358 7.97344C15.6436 7.98052 15.64 8.08311 15.5904 8.11141C15.5301 8.01943 15.5123 8.1574 15.4485 8.11495C15.4024 8.22462 15.3953 8.14679 15.3669 8.18924C15.4698 8.22108 15.2641 8.25999 15.3669 8.26353C15.3173 8.25292 15.2038 8.23169 15.2854 8.33428C15.1931 8.32721 15.1896 8.36966 15.0868 8.33428C14.9059 8.47579 14.3845 8.99229 14.5796 8.96045C14.5512 9.08781 14.3739 9.02413 14.3952 9.13379C14.3136 9.26469 14.2569 9.34959 14.459 9.42034C13.7604 9.53709 13.888 12.1868 13.9909 12.8413C13.9696 12.9085 13.9909 13.2764 13.9909 13.6302C14.0157 13.9061 13.9448 14.4827 14.0228 14.5146C13.849 14.458 14.115 14.787 13.9519 14.6313C13.9732 14.7516 13.9838 14.7587 13.9271 14.8117C13.9802 14.8259 13.9944 14.787 14.037 14.794C14.0476 14.8082 14.037 14.8648 14.0157 14.8153C13.8809 14.9639 13.9058 15.215 13.7923 15.3742C13.9271 15.3742 13.8207 15.4804 13.7923 15.5016C13.771 15.4804 13.7462 15.4202 13.7852 15.4379C13.732 15.3919 13.7143 15.537 13.7639 15.5759C13.7497 15.6431 13.6575 15.5723 13.6823 15.6749C13.693 15.6891 13.5972 15.7032 13.6575 15.7917C13.6362 15.7917 13.5972 15.7528 13.6221 15.8023C13.7143 15.7704 13.5866 15.9155 13.6646 15.866C13.615 15.8836 13.5157 15.919 13.6362 15.9615C13.5582 16.0004 13.5759 16.0358 13.4731 16.0535C13.2071 16.8777 11.9623 19.0711 11.4339 20.288C11.3097 20.472 10.7529 21.3529 10.7175 21.7279C10.6607 21.7208 10.5827 21.7703 10.6395 21.8977C10.5756 21.9118 10.6182 21.7597 10.5792 21.8694C10.6253 21.926 10.5082 21.933 10.5792 21.9755C10.5366 21.9755 10.5508 21.9897 10.5011 22.0073C10.5472 22.0356 10.5756 22.0038 10.6111 22.0215C10.6111 22.0463 10.5863 22.0852 10.5863 22.0356C10.4018 22.1488 10.3664 22.4106 10.2281 22.5769C10.3699 22.5804 10.2387 22.6936 10.2139 22.7078C10.1607 22.6724 10.2316 22.6123 10.182 22.63C10.1004 22.6866 10.2174 22.7679 10.15 22.8069C10.1784 22.8352 10.1252 22.8175 10.1181 22.7962C10.0756 22.8316 10.1181 22.8988 10.0898 22.8847C10.0366 22.8741 10.0507 22.9519 10.0649 22.9873C10.0401 22.966 9.99754 22.9767 10.033 22.9873C10.1323 23.0014 9.97981 23.0934 10.0685 23.0616C10.0153 23.0792 9.91598 23.1076 10.033 23.1571C9.95144 23.1925 9.96917 23.2314 9.86632 23.242C9.80958 23.433 9.42301 23.999 9.59324 23.9389C9.58261 24.0663 9.40174 24.0097 9.43365 24.1122C9.36272 24.2431 9.30243 24.3104 9.49749 24.3917C9.21377 24.2148 9.00808 25.0427 8.80947 25.3434C8.41581 25.9412 7.85547 26.9282 7.68524 27.374C7.74907 27.3351 7.67105 27.427 7.6675 27.4341C7.6746 27.4058 7.65332 27.3492 7.63913 27.4023C7.69233 27.4659 7.50082 27.4801 7.57529 27.565C7.50436 27.6145 7.36251 27.848 7.41925 27.8834C7.19937 28.1063 6.89082 28.6263 6.92274 28.8386C6.87309 28.789 6.77733 28.8669 6.83762 28.9907C6.77024 29.0048 6.81989 28.8527 6.77733 28.9624C6.82344 29.019 6.70286 29.0261 6.77733 29.0685C6.73478 29.065 6.74896 29.0827 6.69931 29.1003C6.74542 29.1286 6.77379 29.1003 6.80925 29.118C6.80925 29.1428 6.78443 29.1817 6.78088 29.1322C6.59292 29.2419 6.55036 29.5036 6.41205 29.6664C6.55391 29.6734 6.41914 29.7831 6.39431 29.7973C6.34466 29.7619 6.41205 29.7017 6.36594 29.7194C6.28437 29.776 6.39786 29.8609 6.33048 29.8963C6.3553 29.9246 6.30565 29.9034 6.29856 29.8857C6.256 29.9175 6.29501 29.9883 6.27019 29.9706C6.21699 29.96 6.23118 30.0378 6.24536 30.0732C6.22054 30.052 6.17798 30.0626 6.21344 30.0732C6.3092 30.0874 6.16025 30.1793 6.24891 30.1475C6.19571 30.1616 6.09641 30.1935 6.21344 30.243C6.13187 30.2749 6.14606 30.3138 6.04676 30.3244C5.70984 31.1027 4.37282 33.3632 3.77346 34.4634C3.68125 34.7005 3.0748 35.5707 3.03579 35.8714C3.01806 35.9705 2.98259 35.8078 2.97196 35.9316C2.90103 35.8997 3.00742 36.1261 2.9294 36.02C2.94004 35.921 2.8762 36.112 2.90457 36.1332C2.86556 36.1191 2.8762 36.1438 2.8301 36.1615C2.8762 36.1898 2.90457 36.1615 2.94004 36.1757C2.94004 36.2004 2.91521 36.2393 2.91167 36.1898C2.7237 36.2995 2.68469 36.5613 2.54638 36.7275C2.68824 36.7346 2.55702 36.8443 2.53219 36.8584C2.48254 36.8231 2.54992 36.7629 2.50382 36.7806C2.42225 36.8372 2.53928 36.9221 2.46835 36.9575C2.49318 36.9858 2.44353 36.9646 2.43644 36.9469C2.39388 36.9823 2.43644 37.0495 2.40806 37.0353C2.35487 37.0247 2.36905 37.1025 2.38324 37.1379C2.35841 37.1167 2.31586 37.1273 2.35132 37.1379C2.45062 37.1521 2.29812 37.244 2.38679 37.2122C2.33359 37.2264 2.23429 37.2582 2.35132 37.3077C2.26975 37.3396 2.28748 37.3785 2.18464 37.3926C2.11725 37.612 1.75551 38.0895 1.89737 38.0966C1.93638 38.1815 1.73069 38.1603 1.74842 38.2417C1.70586 38.3053 1.63848 38.4539 1.72005 38.4893C1.56045 38.5671 0.836971 39.968 0.609996 40.5588C0.340463 41.3265 0.290812 41.6873 0.20215 42.0057C0.170231 42.3206 -0.0815692 43.1095 0.0780227 43.3642C0.0354649 43.3677 0.0744762 43.4208 0.0390113 43.3748C-0.0567438 43.4385 0.13122 43.5977 0.0283719 43.5411C-0.0212789 43.4385 0.0531973 43.6826 0.0425578 43.6507C0.0212789 43.6932 0.0319184 43.672 0 43.7144C0.0531973 43.718 0.0638368 43.6755 0.106395 43.6755C0.117034 43.6967 0.113488 43.7463 0.0886622 43.7003C-0.0319184 43.8913 0.0780227 44.1425 0.0390113 44.3618C0.163138 44.2946 0.106395 44.4573 0.0922086 44.4856C0.0283719 44.4856 0.0602903 44.3937 0.0283719 44.4361C-0.0141859 44.5316 0.127674 44.5387 0.0957551 44.6094C0.134766 44.6201 0.0780227 44.6307 0.0638368 44.6165C0.0496508 44.6661 0.120581 44.705 0.0886622 44.7085C0.0354649 44.7297 0.0957551 44.7863 0.127674 44.8111C0.0922086 44.8076 0.0673832 44.8429 0.102848 44.8323C0.19151 44.7863 0.120581 44.9526 0.173778 44.8748C0.141859 44.9172 0.0744762 45.0021 0.198603 44.9738C0.152499 45.0481 0.187964 45.0729 0.109941 45.1436C0.32273 46.1236 0.631275 47.4396 1.6101 48.982C1.80516 49.2544 1.95411 49.4525 2.05696 49.5233C1.96121 49.4773 2.28039 49.923 2.38324 49.9336C2.50382 50.153 2.93294 50.7261 3.14219 50.6801C3.14219 50.765 3.11027 50.8463 3.28759 50.8322C3.28759 50.8994 3.14573 50.818 3.24503 50.8817C3.31242 50.8499 3.29114 50.9666 3.34788 50.91C3.3337 50.9489 3.35498 50.9419 3.36207 50.9914C3.40108 50.9525 3.37625 50.9171 3.40463 50.8888C3.42945 50.8923 3.46137 50.9277 3.41172 50.9171C3.4791 51.1258 3.72026 51.2319 3.86567 51.3947C3.89759 51.2567 3.9827 51.4088 3.99689 51.4336C3.95433 51.476 3.90468 51.3982 3.91532 51.4477C3.95788 51.5362 4.06073 51.4407 4.08555 51.515C4.11747 51.4937 4.0891 51.5433 4.06782 51.5433C4.09264 51.5893 4.17067 51.5645 4.14939 51.5893C4.12811 51.6423 4.20613 51.6388 4.24869 51.6317C4.22386 51.6529 4.22741 51.6989 4.24514 51.6635C4.27352 51.568 4.3409 51.7378 4.32317 51.6423C4.33026 51.6989 4.34799 51.8015 4.41183 51.6918C4.43311 51.7767 4.47567 51.7661 4.47567 51.8687C4.62107 51.9359 4.85514 52.1376 4.98281 52.2225C5.05374 52.2331 5.18496 52.3251 5.14595 52.2296C5.27362 52.2508 5.2027 52.4277 5.30909 52.4029C5.43322 52.4843 5.49705 52.5515 5.59281 52.3605C5.37647 52.7461 8.29168 53.9701 8.70308 54.0373C8.64633 54.0019 8.69244 54.009 8.74563 54.0373C8.6286 54.0656 8.7811 54.0373 8.75982 54.0975C8.84848 54.0798 9.13929 54.292 9.24214 54.2177C9.47976 54.4512 10.3806 54.5184 10.2777 54.5361C10.3486 54.6104 10.3912 54.5715 10.4586 54.5361C10.4905 54.5963 10.3274 54.5892 10.4444 54.5998C10.5472 54.575 10.5508 54.5998 10.6004 54.6422C10.6182 54.5892 10.5756 54.5715 10.5863 54.5326C10.6111 54.5255 10.6536 54.5397 10.6075 54.5538C10.7671 54.7095 11.0331 54.6635 11.2353 54.7484C11.1998 54.6104 11.3452 54.7059 11.3665 54.7236C11.3488 54.7838 11.2672 54.7342 11.3027 54.7731C11.3807 54.8333 11.4268 54.7024 11.4835 54.7555C11.5013 54.7201 11.5013 54.7767 11.4835 54.7908C11.5296 54.8191 11.5828 54.759 11.5757 54.7908C11.5828 54.8474 11.6538 54.805 11.6821 54.7802C11.6679 54.8121 11.6963 54.8474 11.6928 54.8121C11.6715 54.7165 11.8133 54.8262 11.7495 54.7555C11.7814 54.7979 11.8453 54.8828 11.8524 54.7555C11.9126 54.8191 11.9446 54.7908 11.9907 54.8828C12.2212 54.8828 12.8135 55.0172 12.7638 54.8863C12.8276 54.8156 12.8879 55.0137 12.9589 54.9677C13.0333 54.9854 13.2036 54.9748 13.2 54.8899C13.3206 54.9925 14.7888 55.0279 15.4024 54.9217C15.9485 54.9147 16.7926 54.6564 16.821 54.667C17.1544 54.5786 17.9027 54.4831 18.3034 54.1965C18.2821 54.0939 18.3247 54.239 18.346 54.1788C18.3708 54.1505 18.3318 54.2779 18.4027 54.1894C18.4382 54.2142 18.463 54.1647 18.4772 54.1081C18.5481 54.0798 18.4453 54.193 18.4807 54.1788C18.5836 54.0975 18.5871 54.0868 18.6652 54.1081C18.6474 54.055 18.6049 54.0621 18.5907 54.0232C18.5978 54.0055 18.6581 53.9878 18.6191 54.0302C18.8425 54.0727 19.034 53.8852 19.2503 53.8392C19.1439 53.7472 19.3142 53.7437 19.3461 53.7437C19.3638 53.8038 19.2716 53.8074 19.3213 53.8215C19.4206 53.8286 19.3815 53.6906 19.4596 53.7048C19.456 53.6659 19.4844 53.7118 19.4773 53.7331C19.5305 53.7331 19.5411 53.6517 19.5518 53.68C19.5872 53.7225 19.6227 53.6482 19.6333 53.6093C19.6404 53.6411 19.683 53.6588 19.6617 53.6269C19.5908 53.5597 19.7681 53.5703 19.6759 53.5456C19.7256 53.5633 19.8284 53.5986 19.761 53.489C19.8461 53.5102 19.8568 53.4677 19.949 53.5173C20.1157 53.4041 20.754 53.1317 20.5767 53.0928C20.6547 52.9902 20.7789 53.1387 20.8072 53.0326C20.9349 52.9583 21.0236 52.93 20.8994 52.7567C21.1832 53.1246 23.4919 51.1612 23.8395 50.8463C23.8111 50.818 24.0806 50.6907 24.2473 50.4714C24.375 50.3157 25.0134 49.877 24.9956 49.6188C25.0311 49.6789 25.1446 49.6223 25.1162 49.4914C25.1836 49.4914 25.102 49.6294 25.1659 49.5339C25.1339 49.4702 25.251 49.4879 25.1942 49.4313C25.2332 49.4454 25.2262 49.4242 25.2794 49.4171C25.2403 49.3782 25.2049 49.403 25.173 49.3782C25.1765 49.3535 25.212 49.3216 25.2013 49.3711C25.4141 49.3039 25.4992 49.0492 25.6695 48.9112C25.5312 48.8794 25.6837 48.7945 25.712 48.7839C25.7581 48.8263 25.6766 48.8759 25.7262 48.8653C25.8184 48.8228 25.7156 48.7202 25.79 48.6954C25.7688 48.6636 25.8184 48.6919 25.8184 48.7096C25.8645 48.6813 25.8397 48.607 25.861 48.6282C25.9142 48.6495 25.9106 48.5681 25.9035 48.5292C25.9248 48.5539 25.9709 48.5504 25.9355 48.5292C25.8397 48.5009 26.0064 48.4301 25.9106 48.4513C25.9638 48.4443 26.0702 48.4266 25.9603 48.3629C26.0454 48.3417 26.0348 48.2992 26.1376 48.2992C26.6448 47.4502 27.3966 46.3854 27.8896 44.666C27.925 44.4043 28.0846 43.9444 27.9711 43.955C28.0243 43.8842 28.1201 43.5871 28.0704 43.3854C28.1201 43.1413 28.1626 42.363 28.0031 42.2604C28.0456 42.2498 27.996 42.2038 28.0385 42.2428C28.1201 42.1614 27.9038 42.0376 28.0172 42.0729C28.0846 42.1685 27.964 41.935 27.9818 41.9668C27.996 41.9208 27.9853 41.9456 28.0101 41.8925C27.957 41.8996 27.9534 41.9456 27.9144 41.9527C27.9002 41.935 27.8931 41.8854 27.9286 41.9244C27.9995 41.7121 27.8506 41.4822 27.8257 41.2593C27.7264 41.3583 27.73 41.1815 27.7335 41.1532C27.8009 41.1532 27.8186 41.2522 27.7974 41.1355C27.7761 41.0859 27.6165 41.0435 27.73 41.0187C27.7052 40.9303 27.6661 40.9657 27.6981 40.8984C27.5917 40.8418 27.6732 40.8418 27.6378 40.81C27.5917 40.9055 27.581 40.7039 27.5633 40.7994C27.5846 40.7499 27.6236 40.6508 27.5101 40.7145C27.5349 40.6296 27.4924 40.619 27.5456 40.5305C27.0668 39.7699 26.3504 37.5341 25.634 36.2783C25.5702 35.8856 24.8609 34.2087 24.8148 34.4953C24.7899 34.4776 24.7864 34.4387 24.8219 34.467C24.8502 34.2512 24.6694 34.0601 24.6233 33.8479C24.5417 33.9611 24.4849 33.7524 24.5594 33.7453C24.5842 33.7877 24.6268 33.8196 24.5878 33.7311C24.4637 33.6569 24.492 33.6038 24.4778 33.5083C24.3963 33.4623 24.3502 33.3738 24.3395 33.4198C24.4069 33.2712 24.2048 33.3172 24.3218 33.151C23.843 32.3515 23.0983 30.1581 22.389 28.8279C22.3677 28.5343 21.6123 26.8009 21.591 27.1157C21.5662 27.098 21.5626 27.0591 21.5981 27.0874C21.6265 26.8716 21.4456 26.6806 21.3995 26.4683C21.3179 26.5815 21.2612 26.3728 21.3357 26.3657C21.3605 26.4082 21.403 26.44 21.364 26.3516C21.2399 26.2773 21.2683 26.2242 21.2541 26.1287C21.1725 26.0827 21.1264 25.9943 21.1158 26.0403C21.1832 25.8917 20.981 25.9377 21.098 25.7714C20.9739 25.5945 20.8001 24.9648 20.7257 25.124C20.6264 25.0356 20.7789 24.9648 20.7008 24.9047C20.6441 24.7986 20.6264 24.6535 20.4278 24.7703C20.7434 24.6606 20.2221 23.9849 20.105 23.6382C19.8816 22.959 19.4454 21.9118 19.1971 21.5015C19.19 21.5757 19.1652 21.459 19.1617 21.4484C19.1829 21.4696 19.2361 21.4873 19.2042 21.4484C19.1227 21.4484 19.229 21.2892 19.1156 21.2963C19.1227 21.2114 19.0234 20.9531 18.9595 20.9779C18.917 20.6701 18.6971 20.1041 18.5091 19.9979C18.58 19.9909 18.5765 19.8671 18.4417 19.8388C18.4701 19.7786 18.5623 19.9095 18.502 19.8105C18.4275 19.8105 18.4985 19.7149 18.4205 19.7432C18.4488 19.7114 18.4275 19.7114 18.4417 19.6619C18.3885 19.6796 18.3992 19.722 18.3602 19.7397C18.3389 19.7255 18.3247 19.6796 18.3673 19.7114C18.3956 19.4956 18.2148 19.3046 18.1686 19.0923C18.0764 19.1984 18.0729 19.0286 18.0729 18.9968C18.1367 18.9897 18.1616 19.0888 18.1332 18.9756C18.1084 18.919 18.0232 18.9402 18.0162 18.8836C18.1119 18.8376 17.9771 18.8058 18.0232 18.7527C17.9239 18.7173 18.0091 18.6607 17.9417 18.6926C17.8849 18.7244 17.9133 18.5723 17.8814 18.6643C17.9027 18.6147 17.9417 18.5157 17.8282 18.5793C17.853 18.4944 17.8105 18.4838 17.8637 18.3954C17.4594 17.6454 16.3741 15.2646 16.0479 14.0653C16.0656 13.7894 15.9308 13.4533 15.9485 12.9651C15.9485 12.7599 15.945 12.6007 15.8847 12.5618C15.9308 12.5406 15.9911 12.5016 15.906 12.392C15.8386 12.3708 15.9769 12.3708 15.9379 12.4309C15.9663 12.3955 15.9379 12.3248 15.9308 12.2965C15.906 12.2823 15.945 12.2788 15.9698 12.2328C15.9131 12.2222 15.9024 12.2611 15.8634 12.2611C15.8528 12.2399 15.8599 12.1939 15.8812 12.2399C16.0017 12.0771 15.9734 11.826 16.0443 11.6349C15.9095 11.6632 16.0017 11.5323 16.0266 11.5076C16.0514 11.5253 16.0869 11.5783 16.0443 11.5677C16.1578 11.596 16.0088 11.4227 16.0656 11.3979C16.0408 11.3837 16.1542 11.3908 16.1046 11.3236C16.0904 11.313 16.1826 11.2847 16.1081 11.2069C16.1294 11.2069 16.1755 11.2352 16.1401 11.1892C16.0479 11.2246 16.1578 11.083 16.0869 11.1326C16.1365 11.1078 16.2216 11.0618 16.0975 11.0335C16.172 10.9875 16.1542 10.9522 16.25 10.9274C16.2855 10.7611 16.4131 10.4498 16.4805 10.3401C16.5053 10.3048 16.406 10.1031 16.5337 10.1809C16.5408 10.1774 16.5692 10.2305 16.5444 10.1774C16.5656 10.2022 16.5373 10.1279 16.5373 10.089C16.5834 10.2658 16.516 9.86255 16.4983 9.75996C16.5231 9.80241 16.5515 10.2482 16.5834 10.1031C17.0267 10.7151 18.0126 11.6844 18.1686 11.9285C18.3318 12.0276 18.7999 12.7493 19.0163 12.7776C18.8744 12.8731 19.2255 12.859 19.0375 12.8908C19.1404 12.9439 19.1368 12.9262 19.1404 13.0005C19.1652 12.9509 19.2397 12.8837 19.1971 12.9332C19.2113 13.1137 19.4099 13.1986 19.4808 13.3401C19.534 13.2304 19.5802 13.333 19.5802 13.3754C19.534 13.4108 19.5092 13.3471 19.5057 13.3861C19.527 13.471 19.6298 13.379 19.6333 13.4462C19.6511 13.425 19.5943 13.5523 19.6795 13.4922C19.6014 13.5771 19.8249 13.5771 19.8036 13.5629C19.7894 13.6231 19.7894 13.6938 19.8674 13.6089C19.8639 13.6832 19.8958 13.6797 19.8674 13.7681C19.9915 13.8424 20.2717 14.2705 20.3178 14.1396C20.41 14.1254 20.293 14.2988 20.3746 14.2952C20.4136 14.3448 20.5058 14.4014 20.5271 14.4438C20.5838 14.4261 20.6122 14.3978 20.6441 14.3023C20.7008 14.228 20.5306 14.4969 20.5944 14.4933C21.1548 14.4297 22.013 14.5252 22.4883 14.4969C23.7615 14.557 24.0877 14.4792 24.9673 14.5358C25.2332 14.5217 25.6269 14.5818 25.6801 14.4721C25.7014 14.5004 25.7475 14.5783 25.8042 14.504C25.9213 14.4367 25.8362 14.5075 25.8291 14.5358C25.9035 14.5181 25.9567 14.4792 25.9745 14.5217C25.9745 14.4686 26.0773 14.5959 25.9957 14.4827C26.0418 14.4686 25.9674 14.4615 25.9816 14.4297C25.9957 14.4155 26.0525 14.4226 26.0064 14.4474C26.1873 14.5606 26.432 14.4721 26.6412 14.5146C26.5561 14.366 26.8753 14.4792 26.7228 14.4933C26.7689 14.5464 26.6589 14.4863 26.7086 14.5287C26.7937 14.5747 26.815 14.4332 26.8788 14.4757C26.8895 14.4403 26.8966 14.4933 26.8859 14.5075C26.9356 14.5287 26.9746 14.4615 26.9746 14.4933C26.9888 14.5464 27.0491 14.4933 27.0739 14.465C27.0668 14.4969 27.0952 14.5287 27.0916 14.4933C27.0597 14.4014 27.2086 14.4898 27.1377 14.4261C27.1767 14.465 27.2477 14.5393 27.237 14.412C27.3044 14.465 27.3292 14.4367 27.386 14.5181C27.6058 14.4721 28.1839 14.5641 28.1272 14.4367C28.1839 14.3625 28.2584 14.55 28.3222 14.5004C28.3896 14.511 28.5669 14.4898 28.5492 14.4084C28.9039 14.5252 30.6416 14.5181 31.5744 14.504C32.1595 14.4969 33.8548 14.6207 33.9044 14.4474C34.0888 14.5606 34.33 14.4686 34.5392 14.5146C34.4683 14.3943 34.6811 14.4226 34.6563 14.4969C34.6102 14.5004 34.5641 14.5323 34.6563 14.5287C34.7733 14.4438 34.8088 14.4898 34.901 14.5181C34.9754 14.4615 35.0712 14.4544 35.0357 14.4261C35.1421 14.5464 35.1811 14.3448 35.284 14.5181C35.4329 14.4898 35.7344 14.5146 35.8798 14.5181C35.9365 14.4898 36.0997 14.4933 36.0146 14.4367C36.1351 14.3837 36.1351 14.55 36.2203 14.504C36.3408 14.4969 36.4756 14.5358 36.4472 14.3094C36.4189 14.6419 37.2346 14.4367 37.5892 14.4686C38.3056 14.5358 39.21 14.5535 39.827 14.4933C39.9015 14.5252 39.8802 14.4969 39.8519 14.4686C39.9228 14.4827 39.9263 14.458 39.8838 14.5217C39.9299 14.5287 39.9334 14.4509 39.9583 14.5287C40.0859 14.5181 40.3697 14.504 40.5115 14.5358C40.8059 14.5252 41.423 14.5535 41.4655 14.4933C41.5223 14.511 41.5329 14.5783 41.6428 14.4827C41.7102 14.4297 41.5577 14.5853 41.6535 14.5287C41.6889 14.465 41.7315 14.557 41.7528 14.4827C41.7599 14.5252 41.7741 14.5004 41.8095 14.5358C41.8131 14.4792 41.7705 14.4721 41.7705 14.4297C41.7847 14.4155 41.8414 14.4226 41.7953 14.4474C41.9762 14.5606 42.2209 14.4721 42.4302 14.5146C42.345 14.366 42.6642 14.4792 42.5117 14.4933C42.5578 14.5464 42.4479 14.4863 42.4975 14.5287C42.5827 14.5747 42.6039 14.4332 42.6678 14.4757C42.6784 14.4403 42.6855 14.4933 42.6749 14.5075C42.7245 14.5287 42.7635 14.4615 42.7635 14.4933C42.7777 14.5464 42.838 14.4933 42.8628 14.465C42.8557 14.4969 42.8841 14.5323 42.8806 14.4933C42.8486 14.4014 42.9976 14.4898 42.9267 14.4261C42.9657 14.465 43.0366 14.5393 43.026 14.412C43.0934 14.465 43.1182 14.4367 43.1749 14.5181C43.3629 14.4827 44.0509 14.55 43.9055 14.4367C44.0261 14.3872 44.0509 14.5712 44.136 14.4969C44.285 14.4827 44.4871 14.5358 44.3524 14.3094C44.4658 14.7198 44.8418 13.9026 45.0758 13.754C45.5156 13.379 46.0901 12.5653 46.2249 12.5016C46.2958 12.3389 46.9342 11.8224 46.9306 11.6137C46.959 11.6208 46.9803 11.6915 46.9874 11.6066C47.0441 11.6774 46.9626 11.4297 47.03 11.5571C47.0122 11.6385 47.0761 11.497 47.069 11.4934C47.0441 11.4651 47.108 11.5111 47.0867 11.4687C47.2073 11.5359 46.9697 11.3625 47.0548 11.4262C47.2286 11.3979 47.2818 11.1998 47.4094 11.1184C47.2534 11.0335 47.5052 10.984 47.4378 11.0937C47.5371 11.0795 47.4272 10.9698 47.4945 10.9628C47.4733 10.9451 47.6009 10.9911 47.5336 10.9132C47.6258 10.9805 47.5974 10.7717 47.5867 10.7894C47.7215 10.8 47.6258 10.7753 47.6435 10.6974C47.6896 10.7788 47.6967 10.6656 47.7747 10.7116C47.7995 10.6585 47.874 10.5772 47.8811 10.5312C48.0442 10.5312 48.0194 10.326 48.0797 10.3543C48.1152 10.3507 48.0265 10.142 48.1258 10.2694C48.1294 10.2623 48.1506 10.3331 48.1329 10.2694C48.1436 10.3012 48.1329 10.234 48.14 10.1951C48.1506 10.3012 48.14 10.2128 48.1542 10.1456C48.9983 11.2741 49.3706 12.7847 49.0692 13.6514C49.0124 13.9769 48.8245 14.5287 48.8422 14.603C48.789 14.5217 48.7713 14.6985 48.8174 14.7481C48.7571 14.7693 48.7784 14.6172 48.7535 14.7268C48.8067 14.7764 48.6897 14.7976 48.7642 14.8294C48.7252 14.8294 48.7358 14.8471 48.6933 14.8683C48.7429 14.8931 48.7642 14.8577 48.8032 14.8683C48.8067 14.8931 48.789 14.932 48.7784 14.886C48.6117 15.0134 48.594 15.2716 48.4698 15.445C48.6117 15.445 48.4876 15.5582 48.4627 15.5759C48.4095 15.544 48.4734 15.4804 48.4273 15.5016C48.3492 15.5617 48.4698 15.636 48.406 15.6785C48.4344 15.7032 48.3812 15.6891 48.3741 15.6714C48.3351 15.7068 48.3776 15.774 48.3492 15.7598C48.296 15.7528 48.3138 15.827 48.3315 15.8624C48.3067 15.8412 48.2641 15.8553 48.2996 15.8624C48.3989 15.8695 48.2535 15.9721 48.3386 15.9332C48.2854 15.9509 48.1897 15.9862 48.3102 16.0287C48.2322 16.0676 48.2499 16.103 48.1506 16.1207C47.8776 16.9662 46.7569 19.0039 46.2923 20.3659C46.0759 20.6949 45.2815 22.3151 45.5404 22.1771C45.544 22.2054 45.5191 22.2337 45.5156 22.1948C45.3383 22.3187 45.3205 22.5804 45.1929 22.7573C45.3312 22.7396 45.2177 22.9236 45.161 22.8705C45.1751 22.8245 45.168 22.7715 45.129 22.8599C45.161 23.0014 45.1007 23.0191 45.0368 23.0899C45.0581 23.1818 45.0262 23.2738 45.0652 23.2526C44.9127 23.3021 45.0794 23.4189 44.8772 23.4472C44.8311 23.6559 44.4836 24.2078 44.6538 24.1582C44.6538 24.2927 44.5013 24.2255 44.5084 24.3245C44.4658 24.4377 44.3736 24.5474 44.5935 24.6146C44.2708 24.4448 43.2991 27.1476 43.0543 27.6075C42.9621 27.8303 42.0259 29.6168 42.2918 29.5107C42.2954 29.539 42.2706 29.5673 42.267 29.5249C42.0897 29.6487 42.072 29.9105 41.9443 30.0874C42.0826 30.0697 41.9691 30.2536 41.9124 30.2006C41.9266 30.1546 41.9195 30.1015 41.8805 30.1899C41.9124 30.3315 41.8521 30.3491 41.7882 30.4199C41.8095 30.5119 41.7776 30.6039 41.8166 30.5826C41.6641 30.6322 41.8308 30.7489 41.6287 30.7772C41.3662 31.6616 40.2526 33.6887 39.7597 35.1002C39.6816 35.0896 39.1 36.3349 39.1106 36.5577C38.9617 36.4481 39.1107 36.8584 39.0043 36.6497C38.9901 36.7771 38.9972 36.7877 38.9262 36.8266C38.9759 36.8514 39.0007 36.816 39.0362 36.8337C39.0433 36.8514 39.0149 36.9044 39.0113 36.8478C38.834 36.9716 38.8127 37.2334 38.6886 37.4103C38.8305 37.4068 38.7064 37.5235 38.6851 37.5412C38.6319 37.5094 38.6957 37.4457 38.6496 37.4669C38.5751 37.5306 38.6957 37.6013 38.6283 37.6438C38.6567 37.6686 38.6035 37.6544 38.5964 37.6367C38.5574 37.6756 38.6035 37.7393 38.5751 37.7252C38.5184 37.7181 38.5432 37.7959 38.5609 37.8313C38.5326 37.8101 38.4936 37.8278 38.529 37.8348C38.6283 37.8384 38.4865 37.948 38.5716 37.9056C38.5219 37.9268 38.4226 37.9657 38.5468 38.0046C38.4687 38.0471 38.49 38.0825 38.3907 38.1072C38.0857 39.0447 37.3374 40.9091 37.3268 42.6779C37.3445 42.7133 37.2984 42.8795 37.2949 43.2015C37.3693 43.3854 37.231 44.1885 37.4615 44.3583C37.3906 44.3477 37.3622 44.4715 37.4793 44.5352C37.4332 44.5882 37.3835 44.4326 37.4154 44.5493C37.4864 44.567 37.4012 44.6448 37.4828 44.6378C37.4473 44.659 37.4686 44.6661 37.4438 44.712C37.497 44.705 37.497 44.6625 37.5396 44.6554C37.5573 44.6731 37.5608 44.7227 37.5289 44.6837C37.458 44.8889 37.5892 45.1224 37.6034 45.3417C37.7098 45.2498 37.6921 45.4231 37.685 45.4514C37.6247 45.462 37.6282 45.37 37.6105 45.416C37.5928 45.5116 37.7346 45.4939 37.7098 45.5717C37.7488 45.5717 37.6991 45.5965 37.6779 45.5858C37.6708 45.6389 37.7488 45.6637 37.7204 45.6707C37.6743 45.699 37.7382 45.745 37.7772 45.7627C37.7417 45.7627 37.7204 45.8052 37.7559 45.7875C37.8339 45.7273 37.7949 45.9042 37.8339 45.8158C37.8091 45.8653 37.7594 45.9608 37.8765 45.9078C37.8446 45.9891 37.88 46.0068 37.8233 46.0882C38.1708 46.9054 39.1993 49.0952 40.3732 50.0185C40.4725 50.1919 41.1676 51.0374 41.579 51.1789C41.5577 51.2319 41.5896 51.3239 41.7244 51.2992C41.7244 51.3664 41.5861 51.285 41.6819 51.3522C41.7457 51.3204 41.728 51.4407 41.7847 51.3805C41.7705 51.4194 41.7918 51.4124 41.8024 51.4619C41.8414 51.423 41.8131 51.3911 41.8379 51.3593C41.8627 51.3628 41.8982 51.3947 41.8485 51.3876C41.9266 51.5893 42.1819 51.6706 42.3273 51.8369C42.3557 51.6989 42.4443 51.8475 42.455 51.8723C42.4018 51.9112 42.3344 51.8334 42.4124 51.9218C42.4621 51.9572 42.5259 51.9006 42.5614 51.9466C42.5011 52.035 42.6359 51.9925 42.6181 52.0633C42.7139 52.0456 42.6926 52.1305 42.7103 52.0845C42.7458 52.0138 42.8025 52.1694 42.7813 52.0739C42.7884 52.127 42.8061 52.2366 42.8699 52.1234C42.8948 52.2048 42.9373 52.1942 42.9409 52.2932C43.7069 52.7107 45.7497 54.0408 47.2073 54.2496C47.2427 54.2991 47.6187 54.4866 47.7783 54.4088C48.0549 54.5609 48.6507 54.7272 48.8493 54.6069C48.8174 54.6706 48.9273 54.7307 49.0231 54.6352C49.0585 54.6918 48.8989 54.6989 49.016 54.7024C49.055 54.6387 49.1011 54.7484 49.1188 54.667C49.1295 54.7095 49.1437 54.6882 49.1756 54.7272C49.1862 54.6741 49.1472 54.6599 49.1508 54.6175C49.172 54.6069 49.2181 54.6175 49.172 54.6387C49.3423 54.7731 49.6047 54.7307 49.8104 54.7944C49.7891 54.713 49.8033 54.7201 49.8884 54.7201C49.9594 54.7378 49.853 54.7307 49.9132 54.7484C49.9913 54.7944 49.8175 54.7908 49.8778 54.8121C49.9629 54.8616 49.9948 54.7236 50.0551 54.7696C50.0693 54.7342 50.0728 54.7908 50.0551 54.805C50.1048 54.8297 50.1509 54.7661 50.1473 54.7944C50.158 54.8474 50.2253 54.8014 50.2537 54.7731C50.2431 54.805 50.2714 54.8404 50.2679 54.8014C50.2395 54.7059 50.3885 54.8014 50.3211 54.7378C50.3566 54.7767 50.4275 54.858 50.4239 54.7307C50.4878 54.7908 50.5161 54.759 50.5729 54.8439C51.5765 54.8014 53.3604 54.8793 55.1301 54.3239C55.2401 54.3769 55.233 54.2213 55.2933 54.2743C55.2826 54.3309 55.6834 54.2071 55.8181 54.1541C56.0061 54.1222 56.531 53.9772 56.7473 53.8321C56.8076 53.917 56.7792 53.7225 56.8218 53.7472C56.8005 53.8321 56.8679 53.7225 56.8573 53.7897C56.8395 53.8463 56.9956 53.7543 56.9885 53.6906C56.992 53.8144 57.0027 53.7578 57.0913 53.6729C57.1055 53.7048 57.2261 53.7083 57.1268 53.6588C57.1658 53.6305 57.0913 53.6482 57.0913 53.6163C57.0984 53.5986 57.1587 53.581 57.1197 53.6234C57.3431 53.6694 57.5311 53.4748 57.7439 53.4253C57.6375 53.3333 57.8077 53.3262 57.8361 53.3298C57.8432 53.397 57.7439 53.4218 57.8609 53.3899C57.9177 53.3616 57.8928 53.2803 57.9531 53.2696C58.0028 53.3652 58.0276 53.2272 58.0844 53.2732C58.1163 53.1847 58.1624 53.2378 58.1553 53.213C58.0843 53.1458 58.2617 53.16 58.1695 53.1352C58.2191 53.1529 58.322 53.1883 58.2546 53.0786C58.3397 53.0998 58.3503 53.0609 58.4425 53.1104C59.1873 52.6612 61.3436 51.4867 62.1876 50.2874C62.365 50.2025 63.1594 49.4065 63.248 48.9961C63.3012 49.0103 63.3899 48.9678 63.3509 48.837C63.4183 48.8299 63.3509 48.9749 63.4076 48.8723C63.3686 48.8122 63.4856 48.8122 63.4183 48.7662C63.4608 48.7733 63.4466 48.7556 63.4963 48.7379C63.4537 48.7061 63.4218 48.7379 63.3863 48.7131C63.3863 48.6884 63.4147 48.6495 63.4147 48.7025C63.6133 48.6035 63.6736 48.3452 63.8119 48.1754C63.6878 48.1683 63.7836 48.0657 63.8119 48.0622C63.8864 48.0091 63.8119 48.1648 63.858 48.1188C63.9077 47.9561 63.8793 47.9384 63.9963 47.8499C63.968 47.7332 64.0176 47.7969 64.0176 47.7474C63.9254 47.7792 64.0566 47.6341 63.9751 47.6837C64.0247 47.666 64.1276 47.6306 64.007 47.5846C64.085 47.5457 64.0708 47.5103 64.1701 47.4891C64.4999 46.6224 64.8191 45.7132 64.9397 44.1283L64.961 44.1496ZM39.7916 40.9444C39.7242 40.955 39.8412 40.8949 39.7738 40.9232C40.3767 39.7912 40.8945 38.4681 41.235 37.8384C41.2279 37.6615 41.7138 37.0565 41.6074 36.8231C41.657 36.862 41.7351 36.8124 41.6889 36.6922C41.6357 36.6497 41.7634 36.6957 41.7067 36.7382C41.7457 36.724 41.7421 36.632 41.7457 36.6108C41.7209 36.5931 41.7741 36.5931 41.8024 36.5648C41.7741 36.5471 41.7528 36.5613 41.7315 36.5471C41.7067 36.6249 41.6819 36.4587 41.7173 36.54C41.8911 36.4268 41.9053 36.1757 42.0259 36.0129C41.8769 36.02 42.033 35.7865 42.0649 35.9599C42.1393 35.8997 42.0188 35.829 42.0826 35.7901C42.0542 35.7653 42.1074 35.7794 42.1145 35.7971C42.1535 35.7582 42.1074 35.6981 42.1358 35.7122C42.1996 35.7122 42.15 35.5778 42.1819 35.6096C42.0862 35.6026 42.2245 35.5071 42.1393 35.5424C42.1925 35.5247 42.2848 35.4894 42.1642 35.4504C42.2387 35.4151 42.2209 35.3797 42.3202 35.362C42.3592 35.1887 42.6926 34.612 42.5295 34.6898C42.5295 34.566 42.7139 34.6156 42.6713 34.52C42.7316 34.3927 42.7813 34.3255 42.5827 34.2583C42.8451 34.5554 43.8594 31.7288 44.0864 31.3998C44.097 31.2583 44.3594 30.8586 44.5864 30.3102C44.6928 30.1086 44.7283 29.9317 44.7035 29.9034C44.8524 30.006 44.7035 29.6275 44.8063 29.8185C44.8169 29.6947 44.8099 29.6876 44.8772 29.6522C44.8489 29.631 44.824 29.6522 44.8063 29.6345C44.7815 29.7124 44.7567 29.5461 44.7921 29.6275C44.9659 29.5143 44.9801 29.2631 45.1007 29.1003C44.9375 29.1145 45.1432 28.9022 45.1149 29.0048C45.1361 29.0296 45.1042 29.0579 45.1361 29.0437C45.2106 28.9836 45.09 28.9129 45.1539 28.8739C45.1255 28.8492 45.1787 28.8633 45.1858 28.881C45.2248 28.8421 45.1787 28.782 45.2071 28.7961C45.2744 28.7961 45.2142 28.6581 45.2532 28.6935C45.1574 28.6864 45.2957 28.5909 45.2106 28.6263C45.2638 28.6086 45.356 28.5732 45.2354 28.5343C45.3099 28.4989 45.2922 28.4636 45.3915 28.4459C45.4305 28.2725 45.7674 27.6959 45.6043 27.7773C45.6043 27.6534 45.7887 27.703 45.7497 27.6075C45.81 27.4801 45.8596 27.4129 45.661 27.3457C45.8915 27.6676 46.9838 24.841 47.2321 24.5297C47.2002 24.4483 47.4094 24.2714 47.491 23.9884C47.5797 23.8045 47.9769 23.2632 47.8988 23.0686C47.9379 23.1146 48.0513 23.0474 47.9769 22.9377C48.0123 22.8705 48.0123 23.0191 48.0265 22.9873C48.0123 22.9271 48.0797 22.8882 48.0336 22.8528C48.0691 22.8564 48.1542 22.7998 48.0513 22.8175C48.0584 22.7715 48.0194 22.8352 47.9981 22.8069C47.9946 22.7892 48.023 22.7432 48.023 22.7927C48.2038 22.6901 48.2322 22.4389 48.3599 22.2868C48.2251 22.2868 48.3422 22.1276 48.3953 22.1807C48.3705 22.2054 48.3954 22.2408 48.3989 22.2337C48.4769 22.1807 48.3599 22.0993 48.4273 22.0675C48.3989 22.0392 48.4521 22.0604 48.4592 22.0781C48.5017 22.0427 48.4592 21.979 48.484 21.9967C48.5478 22.0038 48.5053 21.8623 48.5372 21.8977C48.4415 21.8835 48.5869 21.7951 48.5017 21.8269C48.5549 21.8128 48.6471 21.7845 48.5337 21.7385C48.6117 21.7102 48.5975 21.6713 48.6933 21.6606C48.6897 21.5864 48.7855 21.5404 48.7465 21.4873C48.7571 21.4944 48.7181 21.4555 48.7465 21.4802C48.828 21.5722 48.7748 21.3918 48.7926 21.4059C48.8103 21.5404 48.8032 21.367 48.8138 21.3423C48.8174 21.2467 48.8351 21.1901 48.8351 21.3033V21.2963C48.828 21.3918 48.8458 21.2432 48.8351 21.3529C48.8387 21.3493 48.8138 21.5191 48.8387 21.3564C48.828 21.459 48.8458 21.3033 48.8422 21.3352C48.828 21.4484 48.8493 21.3316 48.8528 21.3033C48.8812 21.1972 48.8848 21.1406 48.8528 21.3316C48.8741 21.2184 48.8919 21.1583 48.9096 21.084C49.1188 20.0899 48.9415 20.9354 48.867 21.2892C48.8706 21.2609 48.8848 21.2184 48.8954 21.1972C48.8954 21.1972 48.8812 21.268 48.8812 21.2715C48.8848 21.2609 48.8919 21.2291 48.8954 21.2184C48.8883 21.2538 48.8777 21.321 48.8883 21.3953C48.9451 22.3187 48.9841 23.5427 49.0514 24.0061C49.0408 24.1795 49.0302 24.6358 49.094 24.8622C48.9947 24.8941 49.1862 24.9153 49.1543 24.9436C49.0869 24.8976 49.1543 25.0037 49.1082 24.9542C49.0444 24.9577 49.1082 25.071 49.1578 25.0922C49.0195 25.078 49.1401 25.0568 49.1046 25.17C49.172 25.1771 49.1046 25.1983 49.094 25.2337C49.1507 25.2018 49.2536 25.2089 49.1827 25.216C49.0798 25.3787 49.1791 25.591 49.1472 25.7714C49.282 25.6936 49.2217 25.9518 49.1614 25.8492C49.1295 25.8563 49.1756 25.7962 49.1366 25.8315C49.0976 25.9129 49.2394 25.9165 49.1969 25.9766C49.2323 25.9837 49.1791 25.9943 49.1649 25.9837C49.1472 26.0332 49.2181 26.058 49.1827 26.0615C49.1401 26.1004 49.2004 26.1712 49.2075 26.1606C49.2713 26.1499 49.1898 26.2667 49.2536 26.203C49.211 26.2419 49.1507 26.3056 49.2713 26.2879C49.2217 26.348 49.2501 26.3693 49.172 26.4223C49.3281 27.1865 49.2004 29.2277 49.3423 30.4588C49.2288 30.5189 49.3494 31.3397 49.2962 31.7465C49.4877 31.8456 49.1791 31.8173 49.3742 31.9552C49.2465 31.9552 49.3564 31.9482 49.3387 32.0684C49.2749 32.1321 49.3458 32.0897 49.3813 32.0897C49.3706 32.0154 49.4664 32.1427 49.3955 32.0897C49.2855 32.2489 49.3777 32.4647 49.3352 32.6415C49.4558 32.592 49.4061 32.7158 49.3848 32.7477C49.3245 32.7477 49.3529 32.6698 49.321 32.7017C49.2784 32.7831 49.4203 32.7901 49.3742 32.8467C49.4096 32.8573 49.3564 32.8644 49.3423 32.8503C49.321 32.8998 49.3919 32.9281 49.36 32.9281C49.3139 32.967 49.3706 33.0378 49.3813 33.0272C49.4451 33.0201 49.36 33.1297 49.4238 33.0696C49.3777 33.1085 49.3174 33.1687 49.438 33.1545C49.3848 33.2111 49.4132 33.2359 49.3316 33.2854C49.3777 33.4694 49.2855 34.0283 49.4309 33.9186C49.399 34.0814 49.2678 34.0849 49.399 34.2335C49.3245 34.2547 49.3777 34.2547 49.4096 34.2972C49.3564 34.3113 49.3742 34.3432 49.3955 34.421C49.4061 35.263 49.2465 36.7382 49.3955 37.2653C49.2855 37.4492 49.3671 38.1355 49.321 38.6167C49.4664 38.7299 49.3352 38.645 49.3281 38.7546C49.3281 38.7758 49.4522 38.8926 49.3458 38.8183C49.3033 38.7865 49.4061 38.9457 49.3458 38.9386C49.3884 38.9527 49.2997 39.0023 49.3848 38.9563C49.399 38.9952 49.4061 38.928 49.438 38.9421C49.4522 38.9563 49.4451 39.0023 49.4203 38.9633C49.3068 39.1225 49.399 39.3383 49.3564 39.5152C49.477 39.4657 49.4274 39.5895 49.4061 39.6213C49.3458 39.6178 49.3742 39.5435 49.3423 39.5754C49.2997 39.6567 49.4416 39.6638 49.3955 39.7239C49.4309 39.7346 49.3777 39.7416 49.3635 39.7275C49.3423 39.777 49.4132 39.8053 49.3777 39.8053C49.3352 39.8442 49.3884 39.915 49.399 39.9044C49.4628 39.8973 49.3777 40.007 49.4416 39.9468C49.3955 39.9822 49.3352 40.0459 49.4557 40.0317C49.4026 40.0883 49.4309 40.1131 49.3494 40.1626C49.3671 40.2298 49.36 40.3572 49.3884 40.4067C49.2749 40.4952 49.4132 40.6579 49.3494 40.6826C49.3387 40.7817 49.5196 40.8383 49.3742 40.9232C49.3245 40.9267 49.3813 40.9338 49.3564 40.9374C49.3742 40.948 49.4487 41.0152 49.3777 40.9657C49.3423 40.9444 49.5019 41.1036 49.5586 41.1567C48.9805 40.7675 47.4981 41.0789 46.6682 40.9338C45.1468 41.0116 44.4978 40.7994 43.1359 40.9692C43.1075 40.9303 43.104 40.9232 43.0224 40.902C43.0224 40.8808 42.8345 41.0329 42.9125 40.9267C43.0118 40.8878 42.7352 40.948 42.7493 40.9338C42.6394 40.8666 42.7387 40.9727 42.7458 41.0081C42.721 41.0187 42.6571 41.0187 42.7139 40.9904C42.4763 40.8772 42.1748 40.9657 41.8982 40.9197C41.9798 41.0576 41.7563 40.9727 41.7421 40.9692C41.7741 40.9091 41.8875 40.9267 41.7492 40.9055C41.5896 41.0046 41.5542 40.9197 41.4088 40.9232C41.3449 41.0081 41.3272 40.8949 41.3237 40.9409C41.3662 41.0364 41.1712 40.9409 41.2634 41.0046C41.2244 40.9763 41.1215 40.8808 41.1357 41.0187C41.0506 40.9621 41.0187 40.9975 40.9442 40.9126C40.7349 40.9409 40.3697 40.9126 40.1817 40.9126C40.0256 40.8949 39.9689 41.0859 39.8412 40.9338C39.8448 40.8878 39.7597 40.9444 39.4866 41.1178C39.327 41.2062 39.8199 40.9055 39.7561 40.9338L39.7916 40.9444ZM49.477 34.3078H49.5799C49.6898 34.3149 49.3564 34.3184 49.477 34.3078ZM49.3458 27.4306H49.4487C49.5586 27.4306 49.2252 27.4447 49.3458 27.4306ZM58.3361 34.046C58.3432 34.0212 58.4461 33.9894 58.4709 33.9717C58.4922 33.9788 58.3361 34.0425 58.3361 34.046ZM54.6478 26.9495C54.6549 26.9247 54.7542 26.8893 54.779 26.8716C54.8003 26.8787 54.6443 26.9459 54.6478 26.9495ZM51.1332 20.4968C51.0942 20.3623 50.9914 19.9979 50.9524 19.86C50.9488 19.8281 51.1332 20.5038 51.1332 20.4968ZM51.6971 34.0637H51.5943C51.4843 34.0637 51.8177 34.0495 51.6971 34.0637ZM52.0624 40.9798C52.0837 40.9621 52.034 40.9267 52.0624 40.9161C52.0163 39.6001 52.0234 38.2487 51.9489 37.6049C51.9631 37.4245 51.9844 36.954 51.9206 36.7169C52.0199 36.6851 51.8283 36.6603 51.8603 36.632C51.9276 36.678 51.8603 36.5683 51.9064 36.6214C51.9596 36.6285 51.9241 36.5011 51.8638 36.4905C51.9596 36.4375 51.9028 36.5683 51.9135 36.4021C51.8425 36.3985 51.9028 36.3809 51.9241 36.3349C51.8638 36.3702 51.7681 36.3596 51.8354 36.3525C51.9418 36.1827 51.8425 35.9634 51.878 35.7794C51.7574 35.8361 51.8071 35.7052 51.8248 35.6733C51.8851 35.6733 51.8603 35.7547 51.8886 35.7193C51.9099 35.6379 51.8142 35.6167 51.8142 35.5672C51.9241 35.546 51.8035 35.4929 51.8709 35.4575C51.7964 35.3974 51.8709 35.3868 51.8425 35.3797C51.7539 35.4151 51.8319 35.2736 51.7751 35.3408C51.8177 35.3019 51.878 35.2346 51.7574 35.2523C51.8071 35.1922 51.7787 35.1674 51.8567 35.1144C51.7113 34.2901 51.7964 32.4859 51.6475 30.9718C51.6971 30.8373 51.6368 28.973 51.5304 29.2525C51.6368 29.0827 51.5375 28.8669 51.573 28.6794C51.4595 28.7466 51.4772 28.5591 51.5517 28.5768C51.5659 28.6228 51.5872 28.6581 51.5836 28.5768C51.4914 28.4742 51.5411 28.4423 51.5624 28.3574C51.4985 28.2867 51.495 28.2195 51.4666 28.2407C51.5836 28.1381 51.3815 28.1169 51.5482 28.0143C51.4985 27.8409 51.5588 27.2466 51.4382 27.3634C51.385 27.2572 51.5695 27.2254 51.4914 27.1582C51.4914 27.0237 51.4985 26.9495 51.2964 26.9742C51.6581 27.1546 51.3212 24.2962 51.3779 23.9424C51.3141 23.8894 51.4099 23.6524 51.346 23.38C51.3354 23.196 51.417 22.5521 51.2503 22.4354C51.3212 22.4708 51.2574 22.4212 51.2822 22.4106C51.3318 22.4814 51.2999 22.3646 51.3247 22.3646C51.2893 22.3505 51.2325 22.2019 51.3035 22.3222C51.3247 22.2196 51.2396 22.1948 51.3106 22.1382C51.2467 22.1736 51.1545 22.163 51.2219 22.1559C51.3283 21.9861 51.229 21.7668 51.2645 21.5828C51.1439 21.6394 51.1935 21.5085 51.2113 21.4767C51.2715 21.4767 51.2467 21.5581 51.2751 21.5227C51.2964 21.4413 51.2006 21.4201 51.2006 21.3706C51.3106 21.3493 51.19 21.2963 51.2574 21.2609C51.1829 21.2008 51.2574 21.1901 51.229 21.1831C51.1403 21.2184 51.2184 21.0769 51.1616 21.1441C51.2042 21.1052 51.2645 21.038 51.1439 21.0557C51.1049 20.9991 51.2503 21.0309 51.1687 20.9814C51.2077 20.9708 51.2006 20.9779 51.2467 20.9779C51.1864 20.9602 51.2715 20.9779 51.2325 20.9673C51.2857 20.985 51.1864 20.9142 51.2077 20.9142C51.1545 20.8541 51.2964 21.0097 51.2467 20.939C51.2006 20.8576 51.2219 20.8894 51.2042 20.847C51.268 20.9743 51.1935 20.8258 51.2432 20.9142C51.2148 20.8647 51.0907 20.5109 51.19 20.7515L51.1829 20.7409C51.229 20.8647 51.1652 20.6772 51.2113 20.8151C51.2184 20.8328 51.2645 20.9743 51.2184 20.8293C51.2645 20.9602 51.1971 20.7621 51.2113 20.8045C51.2609 20.946 51.2148 20.8116 51.2042 20.7727C51.1687 20.6383 51.1722 20.6595 51.2219 20.8187C51.1793 20.6772 51.1652 20.6135 51.1403 20.518C51.1616 20.5923 51.1864 20.6913 51.2148 20.7692C51.2077 20.7444 51.1935 20.6772 51.19 20.6489C51.2077 20.7055 51.229 20.7868 51.2006 20.6701C51.2361 20.8081 51.19 20.61 51.2219 20.7409C51.2254 20.7373 51.2857 20.8788 51.2857 20.8647C51.7539 21.742 52.3958 23.0545 52.7221 23.4967C52.7788 23.8151 53.1937 24.4129 53.2469 24.4625C53.1476 24.4483 53.2753 24.5792 53.3427 24.5757C53.3179 24.6358 53.2186 24.5191 53.286 24.6075C53.3569 24.6004 53.3001 24.703 53.3711 24.6677C53.3427 24.696 53.3675 24.703 53.3569 24.749C53.4065 24.7243 53.3959 24.6853 53.4314 24.6641C53.4526 24.6783 53.4704 24.7207 53.4314 24.6924C53.4207 24.9082 53.6158 25.0851 53.6796 25.2867C53.7612 25.1735 53.7825 25.3398 53.7825 25.3717C53.7186 25.3858 53.6867 25.2867 53.7222 25.4C53.7541 25.453 53.8321 25.4247 53.8463 25.4813C53.7541 25.5344 53.8924 25.5521 53.8463 25.6087C53.9385 25.6334 53.8853 25.683 53.9101 25.6759C53.974 25.6016 53.9704 25.7785 53.9917 25.6865C53.974 25.7396 53.9456 25.8386 54.052 25.7679C54.0343 25.8528 54.0768 25.8599 54.0307 25.9518C54.4989 26.6487 55.6479 28.9942 56.226 30.0944C56.3714 30.2996 56.7509 31.2866 56.9743 31.4812C56.9743 31.5413 56.9424 31.6085 57.0878 31.6369C57.063 31.697 56.9637 31.5767 57.031 31.6687C57.102 31.6616 57.0417 31.7642 57.1162 31.7288C57.0878 31.7607 57.1091 31.7607 57.0984 31.8102C57.1481 31.789 57.1374 31.7465 57.1729 31.7288C57.1942 31.743 57.2119 31.7854 57.1729 31.7571C57.1587 31.9729 57.3502 32.1533 57.407 32.3585C57.4921 32.2489 57.5063 32.4151 57.5063 32.447C57.4495 32.4682 57.4389 32.3798 57.4282 32.4293C57.4282 32.5283 57.563 32.4788 57.5524 32.5566C57.5914 32.5496 57.5453 32.5814 57.524 32.5779C57.5276 32.6309 57.6056 32.638 57.5772 32.6522C57.5382 32.6911 57.6091 32.7229 57.6481 32.73C57.6162 32.7371 57.602 32.7795 57.6304 32.7583C57.6978 32.6875 57.6871 32.8609 57.712 32.7724C57.6942 32.8255 57.6623 32.9246 57.7687 32.8538C57.751 32.9387 57.79 32.9493 57.7439 33.0378C58.1872 33.7311 59.3008 36.112 59.8363 37.2016C59.9924 37.4386 60.3399 38.4115 60.5669 38.6273C60.5669 38.6874 60.535 38.7511 60.6768 38.7865C60.6485 38.8466 60.5527 38.7228 60.6165 38.8183C60.6875 38.8148 60.6236 38.9138 60.7017 38.882C60.6733 38.9138 60.6946 38.9138 60.6839 38.9633C60.7336 38.9421 60.7229 38.8997 60.7619 38.882C60.7832 38.8961 60.801 38.9386 60.7584 38.9103C60.7371 39.1261 60.9251 39.31 60.9818 39.5152C61.0776 39.3737 61.1237 39.7063 61.0315 39.5789C61.0279 39.6426 61.0031 39.5188 61.0031 39.5824C61.0031 39.6815 61.1379 39.6355 61.1272 39.7133C61.1662 39.7098 61.1201 39.7381 61.0989 39.7346C61.0989 39.7876 61.1804 39.7982 61.1521 39.8088C61.1095 39.8442 61.184 39.8796 61.2194 39.8902C61.1875 39.8973 61.1698 39.9397 61.2017 39.9185C61.2691 39.8478 61.2549 40.0246 61.2833 39.9327C61.2655 39.9857 61.2301 40.0812 61.34 40.0176C61.3187 40.1025 61.3613 40.1131 61.3116 40.2015C61.411 40.3466 61.5422 40.6614 61.5954 40.7817C61.6025 40.8242 61.8259 40.8772 61.6769 40.9055C61.6769 40.9126 61.6131 40.8984 61.6769 40.9161C61.6486 40.9161 61.6663 40.9232 61.7195 40.9515C61.7975 40.9904 61.7018 40.9515 61.6982 40.9515C61.7372 40.9833 61.95 41.1072 62.0422 41.1744C61.8897 41.0576 61.6734 40.9657 61.6521 40.9833C59.886 40.9869 57.9425 40.8878 56.9424 40.9763C56.5381 40.8772 55.6869 40.9515 55.5522 40.9763C55.655 40.8348 55.2826 41.0612 55.3819 40.955C55.4812 40.9161 55.2046 40.9763 55.2188 40.9621C55.1088 40.8949 55.2081 41.001 55.2152 41.0364C55.1904 41.047 55.1266 41.047 55.1833 41.0187C54.9457 40.9091 54.6443 40.9975 54.3712 40.955C54.4527 41.0895 54.2293 41.0081 54.2151 41.0046C54.2471 40.9409 54.3605 40.9621 54.2187 40.9409C54.0591 41.0435 54.0236 40.955 53.8782 40.9586C53.8144 41.047 53.8002 40.9197 53.7931 40.9763C53.8357 41.0682 53.6406 40.9763 53.7328 41.0435C53.6938 41.0152 53.591 40.9197 53.6051 41.0576C53.52 41.001 53.4881 41.0364 53.4136 40.9515C53.2399 40.9692 52.8285 40.9727 52.6937 40.9515C52.4206 40.9621 52.5908 41.0435 52.3071 40.9975C52.2362 40.8843 52.105 40.9869 51.9135 41.185L52.0943 40.994L52.0624 40.9798ZM7.90512 40.9161C7.50436 40.81 6.65321 40.8701 6.51844 40.8949C6.62129 40.7569 6.24891 40.9763 6.34821 40.8701C6.46879 40.8348 6.21699 40.8631 6.20635 40.8984C6.21344 40.856 6.16734 40.8772 6.13187 40.8454C6.12833 40.902 6.17798 40.9091 6.17798 40.9515C6.15315 40.9621 6.08932 40.9621 6.14606 40.9338C5.91199 40.8171 5.61054 40.902 5.33746 40.856C5.41548 40.994 5.1956 40.9091 5.18142 40.902C5.21333 40.8418 5.32682 40.8595 5.18851 40.8383C5.02892 40.9374 4.99345 40.8489 4.85159 40.8525C4.78776 40.9374 4.77002 40.8206 4.76648 40.8701C4.80549 40.9657 4.61398 40.8701 4.70619 40.9338C4.66718 40.9055 4.56787 40.81 4.57851 40.948C4.4934 40.8914 4.46148 40.9267 4.387 40.8383C4.17776 40.8631 3.81247 40.8383 3.62806 40.8277C3.4791 40.8065 3.41527 41.001 3.30887 40.8454C3.3266 40.7817 3.27695 40.8489 3.20957 40.8808C3.31242 40.7994 3.21312 40.8737 3.13864 40.902C3.20602 40.856 3.26986 40.8418 3.20602 40.8242C3.88695 39.7239 4.50049 38.4292 4.88351 37.8101C4.8906 37.6296 5.41903 37.053 5.33037 36.8089C5.37647 36.8514 5.45804 36.8089 5.42258 36.6816C5.4545 36.6037 5.44386 36.8266 5.48287 36.632C5.51833 36.6143 5.46868 36.6037 5.47223 36.586C5.51124 36.6037 5.5006 36.5754 5.5467 36.5613C5.44031 36.5613 5.41194 36.5011 5.46159 36.533C5.64246 36.4268 5.67792 36.1757 5.80914 36.02C5.67438 36.02 5.79141 35.8608 5.84816 35.9139C5.82688 35.9457 5.84106 35.974 5.8517 35.9669C5.92972 35.9139 5.81269 35.8325 5.88007 35.7971C5.8517 35.7688 5.9049 35.7901 5.91199 35.8078C5.95455 35.7724 5.91199 35.7087 5.94036 35.7228C6.00775 35.7122 5.9581 35.6132 5.99356 35.6238C5.89781 35.6096 6.04321 35.5212 5.9581 35.553C6.01129 35.5389 6.10705 35.5106 5.99001 35.4611C6.06804 35.4292 6.05385 35.3938 6.15315 35.3832C6.21344 35.1745 6.55745 34.7182 6.41914 34.7075C6.38013 34.6226 6.57873 34.6509 6.56455 34.5696C6.6071 34.5094 6.66739 34.3644 6.58582 34.329C6.84117 34.092 7.63558 32.5779 8.04698 31.7713C8.30587 31.2654 9.1854 29.8645 9.05418 29.7442C9.2386 29.6381 9.26697 29.3869 9.40173 29.2312C9.26697 29.2348 9.384 29.0685 9.44075 29.1251C9.42301 29.1676 9.43011 29.2206 9.46912 29.1393C9.44429 29.0013 9.50458 28.9907 9.57197 28.927C9.55423 28.835 9.5897 28.7537 9.55069 28.7678C9.70673 28.7324 9.54359 28.6051 9.74574 28.598C9.80249 28.4105 10.1713 27.8799 10.0046 27.9329C10.0117 27.802 10.1607 27.8834 10.1571 27.7843C10.2032 27.6782 10.3025 27.5792 10.0898 27.4978C10.3664 27.6817 10.5614 26.8822 10.7494 26.5886C11.1395 25.9978 11.5615 25.2337 11.7885 24.6783C11.863 24.6075 12.0758 24.2255 12.2815 23.808C12.4375 23.6134 12.5617 23.3198 12.5191 23.2526C12.551 23.2491 12.6432 23.2455 12.6042 23.1606C12.6007 23.0262 12.6219 23.1359 12.6432 23.1535C12.6361 23.0863 12.6893 23.058 12.6539 23.0156C12.6858 23.0297 12.7744 22.9625 12.668 22.9837C12.6751 22.9377 12.6361 22.9979 12.6149 22.9731C12.6113 22.9554 12.6397 22.9094 12.6397 22.959C12.8205 22.8528 12.856 22.6017 12.9872 22.446C12.8525 22.446 12.9695 22.2868 13.0262 22.3399C13.005 22.3717 13.0192 22.4 13.0298 22.3929C13.1078 22.3399 12.9908 22.2585 13.0582 22.2231C13.0298 22.1948 13.083 22.2161 13.0901 22.2337C13.1326 22.1984 13.0901 22.1347 13.1185 22.1488C13.1894 22.1807 13.1185 21.9932 13.1646 22.071C13.1929 22.0816 13.1823 22.0286 13.1717 22.0498C13.0759 22.0356 13.2213 21.9472 13.1362 21.979C13.1894 21.9649 13.2851 21.9366 13.1681 21.8871C13.2461 21.8552 13.2319 21.8198 13.3312 21.8092C13.3383 21.7314 13.427 21.6606 13.4199 21.5687C13.466 21.5651 13.4625 21.6147 13.4554 21.505C13.4766 21.5899 13.4554 21.505 13.4731 21.5474C13.4518 21.5262 13.4873 21.2397 13.4873 21.4201V21.413C13.4802 21.505 13.4944 21.3635 13.4873 21.4696C13.4873 21.4696 13.4731 21.6253 13.4873 21.4767C13.4766 21.5793 13.4944 21.4236 13.4873 21.459C13.4766 21.5722 13.4873 21.459 13.4979 21.4307C13.5192 21.3352 13.5298 21.2538 13.4979 21.4661C13.5192 21.3493 13.5334 21.2963 13.5511 21.2184C13.5405 21.2821 13.5228 21.3564 13.5121 21.4272C13.5157 21.3989 13.5298 21.3564 13.5405 21.3352C13.5405 21.3352 13.5298 21.4059 13.5263 21.4095C13.5298 21.3989 13.5369 21.367 13.5405 21.3564C13.5121 21.4696 13.5582 21.3104 13.5298 21.4165C13.5298 21.4236 13.5369 21.5298 13.5334 21.5333C13.6043 22.4319 13.5547 23.6417 13.6504 24.1122C13.5866 24.275 13.5689 24.9719 13.6753 25.0391C13.6362 25.0497 13.5618 25.1205 13.6753 25.1877C13.7036 25.2231 13.5972 25.1983 13.6256 25.1559C13.5972 25.1806 13.6362 25.2584 13.6433 25.2726C13.6859 25.2867 13.5937 25.2797 13.6469 25.308C13.5476 25.3398 13.6753 25.3292 13.6823 25.3186C13.6717 25.2443 13.7639 25.3717 13.6965 25.3186C13.583 25.4742 13.6682 25.69 13.6256 25.8669C13.7426 25.8103 13.7178 25.9872 13.6398 25.966C13.6327 25.9235 13.6114 25.8882 13.6079 25.966C13.615 26.012 13.7426 26.0969 13.6291 26.0756C13.6185 26.1606 13.6717 26.1287 13.615 26.1782C13.6894 26.2419 13.6079 26.2455 13.6398 26.2561C13.732 26.2278 13.6398 26.3551 13.7036 26.2985C13.6575 26.3339 13.5972 26.3905 13.7178 26.3834C13.6646 26.44 13.6894 26.4613 13.6079 26.5108C13.6433 26.6664 13.544 27.2572 13.6717 27.144C13.7107 27.2572 13.5334 27.2608 13.6043 27.3421C13.5972 27.4659 13.5866 27.5367 13.7887 27.5261C13.4837 27.4483 13.6291 28.1169 13.583 28.3893C13.5192 29.065 13.4305 29.776 13.4376 30.381C13.3986 30.4659 13.4696 30.4623 13.4554 30.526C13.3951 30.4376 13.4696 30.5543 13.4022 30.5508C13.4518 30.5932 13.3171 30.8515 13.4164 30.9329C13.3135 31.0602 13.3738 31.4918 13.3029 31.7253C13.31 31.8102 13.3312 31.8208 13.3809 31.8739C13.3135 31.8243 13.3844 31.9163 13.3277 31.8845C13.2958 31.8526 13.2887 31.9942 13.3632 32.0118C13.2603 32.0508 13.3348 31.9376 13.3064 32.0932C13.3703 32.1074 13.3064 32.1215 13.2887 32.1569C13.349 32.1286 13.4483 32.1498 13.3773 32.1498C13.2532 32.3019 13.3277 32.5213 13.2745 32.6946C13.3986 32.6522 13.3383 32.7724 13.3171 32.8043C13.2603 32.7972 13.2887 32.7229 13.2568 32.7547C13.2071 32.8326 13.349 32.8503 13.2993 32.9033C13.3348 32.9139 13.278 32.9175 13.2639 32.9033C13.239 32.9529 13.31 32.9812 13.2745 32.9812C13.2178 33.0095 13.2922 33.0979 13.2887 33.0838C13.3525 33.0838 13.2603 33.1863 13.3277 33.1297C13.278 33.1651 13.2142 33.2182 13.3348 33.2146C13.278 33.2677 13.3029 33.2925 13.2213 33.3385C13.2887 34.0778 12.973 36.1261 13.0192 37.3608C13.005 37.1591 12.778 38.6945 12.966 38.6839C12.7744 38.744 13.005 38.9103 12.8737 38.8254C12.9057 38.9386 12.9163 38.935 12.8667 38.9916C12.9269 38.9633 13.0262 38.9846 12.9553 38.9846C12.8347 39.1367 12.9092 39.356 12.856 39.5294C12.9766 39.4869 12.9234 39.6072 12.8986 39.639C12.8418 39.632 12.8702 39.5577 12.8383 39.5895C12.7922 39.6673 12.9305 39.685 12.8808 39.7381C12.9163 39.7487 12.8596 39.7558 12.8454 39.7381C12.8205 39.7876 12.8915 39.8159 12.856 39.8159C12.8099 39.8513 12.8596 39.9256 12.8702 39.915C12.934 39.9114 12.8418 40.0176 12.9092 39.961C12.8596 39.9963 12.7993 40.0494 12.9198 40.0459C12.8631 40.0989 12.8915 40.1237 12.8064 40.1697C12.8383 40.3572 12.7142 40.902 12.8631 40.8065C12.8489 40.9657 12.7212 40.9091 12.7886 40.9621C12.8064 40.9904 12.8347 41.0081 12.7815 40.9727C12.7709 40.9692 12.8312 41.0223 12.8383 41.0435C11.2246 40.9197 8.89104 40.8772 7.90512 40.9161ZM3.13864 40.902C3.09254 40.9303 2.94358 41.0293 2.88684 41.0506L3.13864 40.902ZM13.239 34.3538C13.2603 34.3396 13.3596 34.3608 13.3915 34.3538C13.4022 34.3679 13.239 34.3467 13.239 34.3538ZM13.5547 21.2184C13.5759 21.1088 13.6327 20.8045 13.6611 20.6913L13.5547 21.2184ZM12.8383 41.0435C12.8702 41.0683 12.9518 41.1638 12.9837 41.1921C12.9908 41.2168 12.8383 41.0364 12.8383 41.0435ZM15.335 34.2335H15.2322C15.1222 34.2193 15.4556 34.2264 15.335 34.2335ZM25.0914 40.6685C23.6622 40.8525 21.3569 40.994 20.4703 40.9515C20.105 40.9975 19.0943 40.8737 18.8992 40.9904C18.9489 40.8242 18.6368 41.0541 18.7113 40.948C18.8318 40.9126 18.5836 40.9409 18.5694 40.9763C18.5694 40.9374 18.5339 40.955 18.4949 40.9197C18.4878 40.9763 18.541 40.9833 18.541 41.0258C18.5162 41.0364 18.4524 41.0329 18.5091 41.0081C18.2786 40.8878 17.9736 40.9657 17.7005 40.9091C17.775 41.0506 17.5551 40.955 17.5409 40.9515C17.5764 40.8914 17.6863 40.9161 17.548 40.8878C17.3849 40.9798 17.353 40.8914 17.2076 40.8878C17.1402 40.9692 17.1295 40.8525 17.1224 40.902C17.1579 40.9975 16.9699 40.8949 17.0586 40.9657C17.0196 40.9374 16.9238 40.8348 16.9309 40.9727C16.8494 40.9126 16.8139 40.9444 16.743 40.856C16.3528 40.8772 15.9521 40.7675 15.7464 40.856C15.8599 40.9692 15.5513 40.7569 15.4769 40.7817C15.4414 40.8312 15.4237 40.8383 15.452 40.7852C15.3811 40.8454 15.3031 40.9338 15.2251 40.9904C15.2357 40.9621 15.5123 40.764 15.3988 40.7852C15.4379 40.7534 15.3669 40.7711 15.413 40.7534C15.3811 39.4905 15.484 38.2275 15.3882 37.6084C15.452 37.4669 15.452 36.9823 15.413 36.7594C15.5123 36.7346 15.3244 36.7028 15.3598 36.6745C15.4237 36.724 15.3634 36.6143 15.4059 36.6674C15.4591 36.678 15.4308 36.5507 15.3669 36.54C15.3598 36.4658 15.4698 36.6285 15.4272 36.5294C15.3811 36.4445 15.3988 36.4481 15.4308 36.395C15.374 36.4233 15.2712 36.4127 15.3421 36.4056C15.4556 36.25 15.3669 36.0342 15.4095 35.8644C15.2889 35.9103 15.3386 35.7936 15.3634 35.7582C15.4201 35.7618 15.3953 35.8361 15.4237 35.8042C15.4662 35.7264 15.3279 35.7158 15.3705 35.6592C15.335 35.6486 15.3918 35.6415 15.4024 35.6556C15.4237 35.6061 15.3527 35.5813 15.3882 35.5813C15.4343 35.5389 15.3705 35.4681 15.3669 35.4823C15.3031 35.4894 15.3882 35.3797 15.3244 35.4398C15.3705 35.4045 15.4308 35.3443 15.3102 35.3549C15.3634 35.2983 15.335 35.2771 15.4166 35.2276C15.374 35.0472 15.4733 34.4988 15.3315 34.6014C15.3669 34.4422 15.5017 34.4422 15.3705 34.2936C15.4485 34.2724 15.3918 34.2724 15.3598 34.23C15.413 34.2158 15.3988 34.1875 15.3776 34.1097C15.3847 33.2819 15.5939 31.835 15.4698 31.3149C15.4946 31.2902 15.6116 30.9293 15.5052 30.8232C15.601 30.6039 15.6329 30.1086 15.5549 29.9423C15.4804 29.9211 15.5655 29.9423 15.562 29.8963C15.679 29.9848 15.4981 29.6487 15.5904 29.815C15.6223 29.7159 15.5407 29.6911 15.6152 29.6416C15.5549 29.6699 15.4556 29.6487 15.5265 29.6487C15.6471 29.5001 15.5726 29.2808 15.6258 29.111C15.5052 29.1534 15.5584 29.0367 15.5833 29.0048C15.64 29.0119 15.6116 29.0827 15.6436 29.0544C15.6897 28.9765 15.5513 28.9588 15.601 28.9058C15.5655 28.8952 15.6223 28.8916 15.6365 28.9058C15.6613 28.8562 15.5904 28.8279 15.6258 28.8279C15.6755 28.7855 15.6152 28.7147 15.6116 28.7289C15.5478 28.7289 15.64 28.6298 15.5726 28.6829C15.6223 28.6475 15.6826 28.5945 15.562 28.598C15.6187 28.5449 15.5904 28.5202 15.6755 28.4777C15.6471 28.3221 15.7677 27.7419 15.6365 27.848C15.601 27.7348 15.7783 27.7383 15.7109 27.657C15.7216 27.5332 15.7358 27.4659 15.5336 27.4695C15.8351 27.5579 15.7109 26.8928 15.7677 26.624C15.8492 25.9589 15.9627 25.2584 15.9698 24.6606C16.0017 24.6394 15.9698 24.4943 15.9521 24.5828C15.9166 24.4696 16.0479 24.5969 15.9734 24.512C16.0656 24.3811 16.0124 24.1582 16.0727 23.9424C16.0869 23.7726 16.1294 23.3799 16.1578 23.2632C16.133 23.2208 16.023 23.1712 16.1117 23.2031C16.1117 23.1818 16.1117 23.1323 16.133 23.1889C16.1933 23.1252 16.1472 23.0899 16.101 23.0403C16.2323 23.0792 16.1152 23.0757 16.1649 22.9731C16.101 22.9554 16.1684 22.9448 16.1862 22.913C16.1259 22.9377 16.0266 22.913 16.0975 22.913C16.2287 22.7715 16.1613 22.5486 16.2252 22.3823C16.0691 22.4106 16.1826 22.2054 16.2465 22.3257C16.2997 22.2514 16.1578 22.2267 16.211 22.1771C16.1755 22.163 16.2323 22.163 16.2465 22.1771C16.2748 22.1312 16.2039 22.0958 16.2394 22.0993C16.289 22.0639 16.2394 21.9897 16.2287 22.0003C16.1649 22.0003 16.2642 21.9012 16.1897 21.9543C16.2394 21.9224 16.3067 21.8729 16.1862 21.8694C16.2465 21.8198 16.2216 21.7951 16.3067 21.7562C16.2677 21.7385 16.3351 21.6748 16.3138 21.6819C16.3458 21.6819 16.2535 21.643 16.2855 21.643C16.25 21.6076 16.3599 21.6996 16.3245 21.6536C16.289 21.5899 16.3067 21.6147 16.2961 21.5793C16.3422 21.6819 16.2855 21.551 16.3245 21.6288C16.3032 21.604 16.2287 21.2786 16.2926 21.4908V21.4802C16.3174 21.5828 16.2784 21.4272 16.3067 21.5404C16.3138 21.5687 16.3316 21.6465 16.3138 21.551C16.3387 21.6606 16.3032 21.4944 16.3103 21.5298C16.3387 21.65 16.3138 21.5333 16.3103 21.5015C16.2961 21.3812 16.2961 21.4059 16.3209 21.5404C16.2997 21.4166 16.2926 21.3635 16.2819 21.2786C16.1152 20.2102 16.2571 21.1265 16.3174 21.4979C16.3138 21.4696 16.3103 21.4236 16.3103 21.3989C16.3103 21.3989 16.3245 21.4732 16.3245 21.4767C16.3245 21.4625 16.3209 21.4342 16.3174 21.4165C16.3245 21.4519 16.3387 21.5262 16.3741 21.597C16.7678 22.5097 17.2643 23.709 17.5196 24.1653C17.587 24.3634 17.814 25.0285 17.963 25.0603C17.9275 25.124 17.9168 25.071 17.9381 25.1629C17.9842 25.1912 18.0942 25.2478 17.963 25.216C18.0481 25.308 18.0552 25.3009 18.0374 25.3752C18.0871 25.3115 18.1722 25.2974 18.1119 25.3257C18.08 25.5273 18.2573 25.7007 18.2963 25.8917C18.3921 25.7749 18.4524 26.0438 18.3105 25.9554C18.3211 26.0403 18.4204 26.0261 18.4417 26.0756C18.3495 26.1358 18.4772 26.1429 18.4311 26.1995C18.5233 26.2278 18.4559 26.2702 18.4878 26.2631C18.5588 26.1959 18.5375 26.3587 18.5659 26.2773C18.541 26.3304 18.5091 26.4153 18.6155 26.3551C18.5907 26.433 18.6297 26.4436 18.5765 26.5249C19.0375 27.2714 19.6546 29.0225 20.3817 30.4199C20.4419 30.6286 20.7328 31.4034 20.9846 31.7677C21.0378 31.8102 20.9278 31.796 21.0094 31.888C21.0165 31.8597 21.1442 31.9552 21.0094 31.9128C21.0945 32.0012 21.1016 31.9977 21.0839 32.072C21.1193 32.026 21.2151 31.9871 21.1583 32.0225C21.1264 32.2241 21.3037 32.3939 21.3428 32.5885C21.4243 32.4823 21.4811 32.6698 21.403 32.6805C21.3711 32.6415 21.3392 32.6168 21.3747 32.6946C21.4988 32.7583 21.4669 32.8078 21.4775 32.8963C21.5626 32.9387 21.5981 33.0059 21.6123 32.9741C21.5449 33.1156 21.74 33.0625 21.6229 33.2217C22.0662 33.9116 22.7826 35.9528 23.4565 37.145C23.3784 37.0742 23.5416 37.5695 23.6444 37.573C23.6622 37.849 23.9388 38.415 24.0558 38.4539C24.0558 38.4999 23.9884 38.4822 24.0416 38.5459C24.0239 38.5777 24.0806 38.5919 24.1267 38.599C24.1587 38.6662 24.0416 38.5777 24.0558 38.6096C24.1409 38.698 24.148 38.6945 24.1303 38.7688C24.1799 38.7051 24.2651 38.6874 24.2048 38.7192C24.1728 38.9209 24.3502 39.0942 24.3892 39.2853C24.4956 39.1721 24.5381 39.4409 24.4034 39.3489C24.414 39.4339 24.5133 39.4197 24.5346 39.4692C24.4424 39.5294 24.5701 39.5364 24.524 39.593C24.6162 39.6213 24.5488 39.6638 24.5807 39.6567C24.6516 39.5895 24.6303 39.7522 24.6587 39.6709C24.6339 39.7239 24.602 39.8088 24.7084 39.7487C24.6835 39.8265 24.7226 39.8371 24.6694 39.9185C24.7545 40.0353 24.8467 40.2935 24.8999 40.4209C24.9247 40.5058 25.1304 40.527 25.0027 40.5942C25.0027 40.6013 24.9389 40.5942 25.0027 40.6048C24.9673 40.6048 25.0417 40.626 25.0701 40.6508C24.8857 40.5694 25.6872 41.0046 25.0595 40.6614L25.0914 40.6685ZM22.1797 34.1875C22.1904 34.1627 22.2897 34.1344 22.318 34.1167C22.3358 34.1238 22.1797 34.184 22.1797 34.1875ZM19.1262 27.4872C19.1368 27.4624 19.2361 27.4341 19.2645 27.4164C19.2822 27.4235 19.1262 27.4836 19.1262 27.4872ZM52.1014 17.274C52.0979 17.2987 51.9915 17.327 51.9702 17.3412C51.9525 17.3306 52.1014 17.2775 52.1014 17.274ZM34.0569 3.11623C34.0392 3.13392 33.9363 3.12685 33.9044 3.13392C33.8902 3.11977 34.0569 3.11977 34.0569 3.11623ZM30.8934 3.18699C30.9254 3.18699 31.014 3.18699 31.0459 3.19053C31.0601 3.20114 30.8793 3.1976 30.8934 3.18699ZM13.0121 17.182C13.0369 17.1926 13.1149 17.2315 13.1433 17.2456C13.1504 17.2633 12.9908 17.189 13.0121 17.182ZM5.51479 31.4352C5.54316 31.4529 5.62118 31.4918 5.64955 31.5095C5.65665 31.5272 5.49351 31.4387 5.51479 31.4352ZM0.418485 46.3535C0.429125 46.3288 0.535519 46.3181 0.563891 46.304C0.581624 46.3146 0.418485 46.35 0.418485 46.3535ZM26.7121 47.2839C26.6838 47.2662 26.6093 47.2238 26.5809 47.2061C26.5738 47.1884 26.7334 47.2804 26.7121 47.2839ZM26.9781 39.5046C26.971 39.5294 26.8646 39.5541 26.8398 39.5718C26.8221 39.5612 26.9781 39.5081 26.9781 39.5046ZM23.7544 32.1215C23.7473 32.1463 23.6409 32.171 23.6161 32.1887C23.5983 32.1781 23.7544 32.125 23.7544 32.1215ZM17.2998 17.3589C17.2927 17.3836 17.1898 17.4119 17.165 17.4296C17.1437 17.419 17.3033 17.3624 17.2998 17.3589ZM48.1684 10.1774C48.1684 10.1314 48.1684 9.99345 48.1684 9.94038C48.179 9.91916 48.1648 10.1809 48.1684 10.1774ZM47.7463 17.2704C47.7783 17.2846 47.8563 17.3199 47.8847 17.3306C47.8953 17.3482 47.7251 17.2739 47.7463 17.2704ZM41.2527 31.9199C41.2846 31.934 41.3627 31.9694 41.391 31.98C41.4017 31.9977 41.2314 31.9234 41.2527 31.9199ZM38.0751 39.2888C38.107 39.2994 38.1886 39.3277 38.2205 39.3383C38.2311 39.356 38.0573 39.2994 38.0751 39.2888ZM38.3978 47.199C38.4049 47.1743 38.5077 47.1424 38.5326 47.1247C38.5503 47.1318 38.3978 47.1955 38.3978 47.199ZM44.0225 52.8911C44.0119 52.8663 44.0828 52.785 44.0899 52.7567C44.1112 52.7531 44.019 52.8876 44.0225 52.8911ZM51.7929 54.7908C51.7929 54.7625 51.7893 54.6776 51.7893 54.6493C51.8 54.6352 51.8071 54.8085 51.7929 54.7908ZM59.471 52.4807C59.4533 52.4524 59.4072 52.3781 59.3895 52.3498C59.3895 52.3322 59.4888 52.4878 59.471 52.4807ZM64.5425 46.35C64.5106 46.3394 64.429 46.3181 64.3971 46.3075C64.3865 46.2934 64.5638 46.3429 64.5425 46.35Z" fill="#D8A825"/>
</svg>
